<?xml version="1.0" encoding="utf-8"?>
<!-- Generator: Adobe Illustrator 15.1.0, SVG Export Plug-In . SVG Version: 6.00 Build 0)  -->
<!DOCTYPE svg PUBLIC "-//W3C//DTD SVG 1.1//EN" "http://www.w3.org/Graphics/SVG/1.1/DTD/svg11.dtd">
<svg version="1.1" id="Layer_1" xmlns="http://www.w3.org/2000/svg" xmlns:xlink="http://www.w3.org/1999/xlink" x="0px" y="0px"
	 width="250px" height="60px" viewBox="0 0 250 60" enable-background="new 0 0 250 60" xml:space="preserve">
<g>
	<path fill="#FFFFFF" d="M65.408,22.516c0.036,0.108,0.108,0.432,0.108,0.756v0.144c-0.036,0.216-0.216,0.612-0.972,0.936
		c0,0-0.324,0.216-0.576,0.216l-0.9-0.072c-0.684-0.252-0.684-0.18-1.512-0.432c-0.252-0.072-0.792-0.144-1.188-0.288
		c-1.836-0.612-1.584-0.648-2.375-0.972c-0.072-0.036-2.232-0.828-2.34-0.828c-0.396,0-0.612-0.216-1.332-0.396
		c-0.288-0.072-0.864-0.072-1.296-0.216l-1.152-0.144c-0.396-0.144-0.72-0.18-1.008-0.18c-0.324,0-0.576,0.072-0.792,0.072
		c-0.432-0.072-0.756-0.072-1.008-0.072h-1.439c-0.144,0-0.9,0.144-1.368,0.144c-0.612,0-1.26,0.036-1.979,0.036
		c-0.216,0-0.432,0.036-0.612,0.036c-0.144,0-0.252,0.072-0.576,0.072c-0.216,0-0.612,0.036-1.296,0.216
		c-0.324,0-0.288,0.108-0.612,0.108c-0.108,0-0.288,0.036-0.468,0.036c-1.836,0.108-2.556,0.468-4.788,0.864l-1.692,0.324
		c-0.108,0.108-0.54,0.252-0.684,0.252l-0.396,0.108c-0.468,0-0.576,0.324-1.188,0.432c-0.432,0.108-0.9,0.216-1.62,0.432
		c-0.612,0.18-0.54,0.18-1.296,0.432C28.98,24.568,27.865,25,27.685,25c-0.288,0-0.252,0.18-0.756,0.18
		c-0.252,0-0.792,0.216-1.08,0.216h-0.936c-0.612,0-1.008-0.216-1.296-0.432c-0.648-0.432-1.08-0.936-1.08-1.512
		c0-1.152,0.576-1.764,0.756-1.764l0.54-0.144c-0.108,0,0.792-0.072,0.792-0.108l0.612-0.036l0.72,0.18
		c0.612,0,0.936,0.36,1.152,0.36c0.036,0,0.252-0.036,0.432-0.036c0.144,0,0.972,0.072,1.152,0.108c0.216,0,0.684-0.072,1.08-0.072
		c0.216,0,0.432,0.072,0.684,0.072l0.432-0.036c0.072-0.108,0.54-0.108,0.864-0.108h0.612c0.72,0,1.224-0.18,1.908-0.252
		c0.072,0,0.072-0.036,0.144-0.036c0.468-0.072,0.612-0.108,0.9-0.108c2.556-0.36,1.656-0.252,4.967-0.756
		c0.972-0.036,1.404-0.072,2.88-0.324c0.072,0,0.612-0.072,0.72-0.072c0.144,0,0.396-0.036,0.72-0.036c0.468,0,0.936-0.18,1.44-0.18
		c0.072-0.036,1.08-0.036,1.152-0.036h0.576c0,0,0.18-0.036,0.504-0.036c0.432,0,0.36,0.036,1.62,0.072
		c0.036,0,1.116-0.036,1.26-0.036c0.036,0,1.332,0.036,1.368,0.036c1.404,0.252,1.26,0.108,3.492,0.36
		c1.98,0.252,3.636,0.36,4.211,0.54c0.36,0.072,0.684,0.108,0.9,0.108l1.224,0.252c1.224,0.072,1.043,0.108,1.872,0.144
		C64.544,21.508,64.94,21.76,65.408,22.516z"/>
	<path fill="#FFFFFF" d="M63.18,21.904c0.684-0.396,1.08-0.54,2.124-0.54h0.612c0.216,0,1.08,0.54,1.152,0.648
		c0,0,0.684,0.72,0.684,1.151c0,0.144-0.108,0.324-0.108,0.576c0,0.504-0.108,0.972-0.108,1.512c0,0.612-0.252,1.584-0.252,1.98
		c0,0.72-0.036,1.439-0.036,2.231c0,0.396-0.072,0.828-0.072,1.188c0,0.972,0.072,1.835,0.612,2.664
		c0.828,1.296,0.792,0.936,1.332,1.332l0.396,0.324c0.216,0.18,0.18,0.18,0.576,0.359c0.756,0.36,0.72,0.36,0.72,0.36
		c0,0.036,0.468,0.252,0.972,0.252c0.252,0,0.504,0,0.756-0.144c0.648-0.181,0.612-0.289,1.044-0.541
		c2.879-2.123,2.087-1.584,4.643-3.995l1.692-1.583l2.592-2.16c0.072-0.036,1.26-0.828,1.908-1.439c0,0,0.468-0.288,0.432-0.288
		c0-0.036,0.18-0.18,1.26-0.936l0.756-0.504l0.684-0.396c0,0,0.18,0,0.432-0.324l0.828-0.504c0.036,0,0.144,0,0.144-0.036
		c0.144,0,0.288-0.252,0.288-0.252s0.216-0.036,0.252-0.144l0.18-0.144c0.072-0.036,0-0.144,0.108-0.216
		c0.036-0.072,0.216-0.072,0.216-0.288c0.54-0.36,0.576-0.36,0.576-0.36c0.18,0,0.396,0,0.468,0.216
		c0.144,0.18,0.648,0.108,0.828,0.612c0.036,0.108,0.036,0.216,0.036,0.468c0.072,0.18,0.108,0.324,0.108,0.432
		c0,0.792-0.576,0.936-1.368,0.936c-0.216,0-0.396-0.072-0.648-0.252c-0.072-0.036-0.144-0.036-0.18-0.036
		c-0.072,0-0.144,0.072-0.288,0.072c-0.216,0.108-0.756,0.18-0.864,0.432c-0.144,0-0.324,0.108-0.288,0.108
		c0,0.036-0.144,0.18-1.188,0.828c-0.18,0.072-0.288,0.18-0.396,0.288c-0.54,0.252-1.872,1.44-2.087,1.44l-1.368,0.936
		c0,0-3.06,2.592-3.095,2.592c-0.036,0-3.132,3.239-3.276,3.239c-0.684,0.504-0.072,0.252-2.52,2.124l-0.648,0.433
		c-0.216,0.071-0.468,0.395-0.9,0.684c-0.612,0.539-1.188,1.043-2.771,1.08c-0.756,0-1.944-0.576-2.556-1.152
		c-0.072,0-0.828-0.648-1.116-0.9c-0.612-0.539-0.972-1.188-1.26-1.512c-0.36-0.899-0.54-1.115-0.684-1.728
		c-0.108-0.396-0.36-2.268-0.36-3.563c0-0.18-0.036-0.468-0.036-0.576v-0.432c0-0.144,0-0.252-0.036-0.432v-0.432
		c0-0.612,0.108-0.756,0.108-1.152c0-0.036,0-0.144-0.108-0.144c-0.18,0-0.18,0.288-0.216,0.324c-0.18,0.216-0.468,0.792-0.54,0.972
		c-0.108,0.252-0.54,0.684-0.828,1.08c-0.036,0.036-0.468,0.828-0.468,0.864c-0.144,0.396-0.432,0.684-0.828,1.296
		c-0.756,1.116-0.324,0.864-1.944,2.915l-0.108,0.18c-0.54,0.828-1.62,1.621-2.412,2.16c-0.144,0.108-0.144,0.145-0.18,0.145
		c-0.216,0.107-1.008,0.504-1.8,0.504c-0.792,0-1.692-0.864-1.944-1.477c-0.072-0.144-0.036-0.144-0.252-0.504
		c-0.144-0.252-0.18-0.467-0.18-0.791v-0.289c0.36-1.764,0.432-1.331,0.864-2.303c-0.108,0.072,0.576-1.044,0.612-1.116
		c0-0.072,0.756-1.08,1.26-1.692c0-0.072,0.792-0.828,0.864-0.864c0.108-0.108,0.396-0.468,1.152-1.152
		c0.648-0.612,0.936-0.828,1.44-1.368c0.36-0.216,1.08-0.864,1.368-0.972c0.36-0.216,1.188-1.116,1.836-1.476L63.18,21.904z
		 M54.073,33.207c0,0.359,0.18,0.504,0.54,0.504c0.036,0,0.108,0.035,0.18,0.035c0.18,0,0.504-0.072,0.936-0.359
		c0.072,0,0.828-0.648,0.972-0.612c0.36-0.432,0.9-0.756,1.368-1.224c0.468-0.468,2.735-2.592,4.5-5.075
		c0.18-0.18,0.432-0.54,0.684-0.792c-0.036-0.18,0.9-0.972,0.9-1.296c0-0.108,0-0.144-0.216-0.144c-0.072,0-0.072,0.036-0.396,0.036
		c-1.224,0-1.44,0.576-1.944,0.72c0-0.072-0.936,0.648-1.332,0.864c-0.18,0.036-0.936,0.468-2.088,1.692
		c0.108-0.072-0.792,0.864-1.44,1.512c-0.216,0.072-0.54,0.504-0.792,0.864c-0.252,0.324-0.576,0.576-1.152,1.44
		c-0.18,0.252-0.288,0.576-0.324,0.684c-0.144,0.359-0.18,0.432-0.324,0.648L54.073,33.207z"/>
	<path fill="#FFFFFF" d="M118.724,25.396c-0.216,0.072-0.36,0.18-0.504,0.252c-0.72,0.252-2.484,1.224-2.808,1.476l-1.764,0.828
		c0,0-4.104,2.556-4.14,2.592c-0.252,0.108-1.044,0.611-1.764,1.044c-0.036,0.036-0.324,0.144-0.324,0.144
		c-2.987,1.656-2.987,1.691-3.023,1.691s-0.072,0.037-0.108,0.037c-0.432,0.18-1.368,0.467-2.052,0.863
		c-0.072,0.036-1.224,0.612-1.296,0.612c-0.54,0.071-0.36,0.252-1.872,0.54l-1.332,0.216c-1.044,0.323-1.764,0.396-2.304,0.396
		c-1.008,0.288-1.908,0.18-2.952,0.432c-0.216,0.145-0.864,0.396-0.9,0.396c-0.324,0-0.576,0.18-0.936,0.18
		c-0.216,0-0.72,0.072-0.684,0.072c0,0.035-0.972,0.252-1.044,0.252c-0.18,0-0.504,0.107-0.756,0.107s-0.54,0.18-0.828,0.18
		c-0.072,0-0.216-0.035-0.72-0.035c-0.468-0.107-0.936-0.539-0.936-1.476c0-0.576,0.756-1.907,1.836-1.907
		c0.108,0,0.288,0,0.288-0.037c0-0.215,0-0.252-0.036-0.432v-0.432l0.18-0.612c0.072-0.18,0.036-0.647,0.072-0.864
		c0.072-0.611,0.288-1.511,0.396-2.267c0.18-1.296,0.396-1.584,0.72-3.419l0.396-2.268c0.144-1.224,0.288-1.368,0.396-2.591
		l0.108-0.576c0-0.072,0.36-2.268,0.36-2.268c0.468-2.988,0.468-3.384,1.008-5.58l0.252-1.043c0.18-0.72,0-0.756,0.288-1.764
		c0.036-0.18-0.072-0.36,0.684-2.412c-0.036,0,0.324-0.468,0.324-0.576c0.036-0.432,0.324-0.504,0.612-0.756
		c0.144-0.216,0.792-0.324,1.08-0.324c0.504,0,1.008,0.18,0.972,0.18c0.036,0,0.144,0.144,0.144,0.144
		c0,0.036,0.432,0.612,0.432,1.152c0,0.18-0.072,0.468-0.072,0.54c0,0.324-0.108,0.576-0.18,1.008
		c-0.036,0.288-0.144,1.008-0.288,1.296c-0.756,2.16-0.36,1.62-0.612,2.232c-0.072,0.216-0.468,1.584-0.468,1.764
		c-0.072,0.828-0.288,1.764-0.504,2.664l-0.432,1.872c-0.252,0.864-0.36,1.764-0.612,2.843c-0.108,0.54-0.432,1.908-0.504,2.34
		c-0.216,1.836-0.216,1.152-0.612,3.312c-0.036,0.108-0.036,0.252-0.036,0.396c0,0.072,0,0.18,0.036,0.36
		c-0.108,0.144-0.144,0.252-0.144,0.324c0,0.108,0.036,0.18,0.036,0.252c0.576-0.576,0.648-0.576,0.828-0.756
		c0.9-0.648,1.368-0.936,2.052-1.512c0.252-0.36,0.612-0.324,0.9-0.576c1.764-1.08,2.087-1.44,2.556-1.692
		c0.252-0.216,1.692-0.936,1.872-1.044c0.72-0.36,0.756-0.288,1.944-0.864c0.252-0.144,1.044-0.396,1.26-0.396
		c0.144,0,1.836-0.432,2.088-0.432c0.54,0,0.612-0.108,1.296-0.108c1.043,0,2.483,0.288,2.483,1.295v0.684
		c-0.108,0.108-0.108,0.36-0.108,0.432l-0.288,0.756c-0.324,0.864-1.548,2.016-2.339,2.771c-0.072,0.036-0.108,0.108-1.692,1.404
		c0.036-0.036-0.684,0.504-1.116,0.72c-0.9,0.432-0.792,0.504-1.836,1.08c-1.008,0.685-2.016,1.26-3.204,1.728
		c-0.54,0.18-1.44,0.432-1.836,0.612c-0.144,0.071-0.252,0.18-0.468,0.18s-0.324,0.144-0.324,0.252c0,0.036,0,0.072,0.108,0.072
		h1.583l2.196-0.288l2.124-0.396c0.144,0,1.547-0.467,1.691-0.504c0.468-0.035,2.628-1.008,2.52-1.008
		c0.072,0,2.916-1.691,2.987-1.691l1.692-0.936l1.764-1.152c0.036-0.072,1.62-0.828,2.52-1.476c0.072,0,0.504-0.216,0.468-0.252
		c0-0.036,0.324-0.144,1.728-0.9l0.972-0.36l0.036-0.108l1.404-0.648l0.828-0.504c0.036,0,0.144,0,0.144-0.036
		c0.144,0,0.288-0.252,0.288-0.252s0.216-0.036,0.252-0.144l0.18-0.144c0.072-0.036,0-0.144,0.108-0.216
		c0.036-0.072,0.216-0.072,0.216-0.288c0.54-0.36,0.576-0.36,0.576-0.36c0.18,0,0.396,0,0.468,0.216
		c0.144,0.18,0.648,0.108,0.828,0.612c0.036,0.108,0.036,0.216,0.036,0.468c0.072,0.18,0.108,0.324,0.108,0.432
		c0,0.792-0.576,0.936-1.368,0.936c-0.216,0-0.396-0.072-0.648-0.252c-0.072-0.036-0.144-0.036-0.18-0.036
		c-0.072,0-0.144,0.072-0.288,0.072c-0.216,0.108-0.756,0.18-0.864,0.432c-0.144,0-0.324,0.108-0.288,0.108
		c0,0.036-0.18,0.036-0.684,0.324L118.724,25.396z M92.375,32.162c0.648,0,0.864-0.432,1.368-0.719
		c0.18-0.072,0.828-0.433,1.188-0.577c0.864-0.288,1.26-0.432,1.656-0.54c0.324-0.108,4.067-1.512,4.139-1.584
		c0.108-0.072,0.468-0.288,1.296-0.612c0.972-0.36,1.332-0.756,1.944-0.936c0.18,0,0.324-0.468,0.972-0.648l0.612-0.504
		c0.288-0.072,0.396-0.504,0.612-0.684c0.108-0.324,0.18-0.576,0.18-0.792c0-0.648-0.54-0.828-1.62-0.828
		c-0.18,0-0.396,0-0.792,0.108c-0.972,0.18-0.828,0.072-2.231,0.504c-0.468,0.18-0.72,0.432-1.764,0.936l-2.088,1.044
		c-0.504,0.252-1.728,1.26-2.304,1.835c-0.36,0.396-0.9,0.756-1.224,1.26c-0.36,0.576-1.152,1.08-1.548,1.656
		C92.699,31.154,92.375,31.658,92.375,32.162z"/>
	<path fill="#FFFFFF" d="M137.049,25.576l-1.583,0.756l-3.743,1.368c-0.864,0.288-2.7,1.116-3.78,1.224l-1.655,0.18
		c-0.36,0-1.224-0.144-1.332-0.18c-0.036,0-0.144-0.036-0.18-0.036c-0.468-0.036-1.26-0.684-1.8-1.152l-0.324,1.332
		c0,0.036-0.072,0.18-0.18,0.396c0,0.036-0.072,0.108-0.072,0.18l-0.72,2.124c-0.108,0.181-0.18,0.288-0.252,0.504
		c-0.216,0.433-0.432,0.828-0.612,1.116l-0.612,0.972c-0.18,0.252-0.468,0.756-0.684,0.972c-0.108,0.217-0.72,0.864-0.936,1.152
		c0,0.107-1.043,1.008-1.043,1.008s-0.468,0.467-1.152,0.791c-0.252,0.145-0.684,0.252-0.828,0.252c-0.108,0-0.396,0.109-0.54,0.109
		c-0.684,0-1.08-0.182-1.152-0.217c-0.432-0.287-0.828-0.684-1.08-1.619c0-0.037-0.144-0.217-0.18-0.756
		c-0.036-0.181-0.108-0.433-0.108-0.793c0-0.252,0-0.539,0.036-0.828l0.108-0.504c0-0.071,0.072-1.008,0.792-2.482l0.648-1.369
		c0.252-0.468,0.324-0.756,0.36-0.792l1.764-3.06c0.216-0.252,0.324-0.576,0.612-0.828c0.144-0.252,1.08-1.476,1.152-1.584
		c0.252-0.396,0.504-0.792,0.936-1.08l0.54-0.36c-0.036-0.036,0.612-0.252,0.684-0.252l0.432-0.072c0.324,0,0.684,0.108,0.864,0.216
		l0.18-0.252c0.18-0.144,0.54-0.324,1.188-0.324c1.295,0,2.016,1.62,2.016,2.16c0,0.072,0.036,0.36,0.072,0.612l0.108,0.972
		c0.036,0.324,0,0.468,0.108,0.936c0.108,0.54,1.043,1.188,1.656,1.188h0.647c0.648,0,1.332,0,1.729-0.144
		c1.367-0.36,1.764-0.54,1.836-0.54c0.719-0.144,2.195-0.684,3.852-1.44l3.166-1.44l0.434-0.144l1.115-0.72
		c0.035,0,0.145,0,0.145-0.036c0.143,0,0.287-0.252,0.287-0.252s0.217-0.036,0.252-0.144l0.18-0.144
		c0.072-0.036,0-0.144,0.109-0.216c0.035-0.072,0.215-0.072,0.215-0.288c0.541-0.36,0.576-0.36,0.576-0.36
		c0.18,0,0.396,0,0.469,0.216c0.143,0.18,0.646,0.108,0.826,0.612c0.037,0.108,0.037,0.216,0.037,0.468
		c0.072,0.18,0.107,0.324,0.107,0.432c0,0.792-0.576,0.936-1.367,0.936c-0.217,0-0.396-0.072-0.648-0.252
		c-0.072-0.036-0.145-0.036-0.18-0.036c-0.072,0-0.145,0.072-0.287,0.072c-0.217,0.108-0.541,0.144-0.756,0.36
		c-0.145,0-0.434,0.18-0.396,0.18c0,0.036-0.18,0.072-0.684,0.36C138.021,25.215,137.59,25.324,137.049,25.576z M115.56,35.438
		c0.108,0.071,0.324,0.18,0.468,0.18l0.684-0.071c0.144,0,0.396-0.108,0.72-0.36c0.756-0.54,0.972-0.828,1.439-1.476
		c0.324-0.469,0.54-0.685,0.756-1.116l0.9-1.548c0.216-0.396,0.504-1.188,0.684-1.656l0.468-1.368
		c0.216-0.612,0.252-1.08,0.432-1.728c0-0.108-0.036-0.288-0.072-0.396l-0.504-0.468c-0.396-0.288-0.396-0.324-0.432-0.324
		c-0.108,0-0.18,0.216-0.54,0.504l-0.18,0.144c-0.576,0.432-1.152,0.864-1.547,1.332c-0.036,0.108-0.108,0.108-0.18,0.18l-0.18,0.18
		c-0.036,0.072-0.36,0.432-0.36,0.432c-0.936,1.188-1.224,1.8-1.548,2.556c-0.396,0.684-0.36,0.864-0.648,1.62
		c-0.252,0.54-0.36,1.008-0.468,1.548c-0.072,0.288-0.036,0.181-0.108,0.72c0,0.107,0,0.252-0.036,0.432
		C115.308,34.862,115.524,35.366,115.56,35.438z"/>
	<path fill="#FFFFFF" d="M172.146,25.18c-0.18,0-0.359,0.072-0.574,0.144c-0.686,0.288-0.938,0.324-1.584,0.612
		c-0.9,0.36-1.152,0.54-1.873,0.828c-0.432,0.18-0.467,0.108-0.971,0.432l-0.865,0.36l-0.971,0.54
		c-0.828,0.468-0.973,0.396-1.621,0.792l-0.684,0.396c-0.252,0.216-0.684,0.468-1.799,1.152l-3.023,2.448l-1.045,1.008
		c0,0.035-0.432,0.324-0.359,0.324c0,0.035-0.072,0.18-0.539,0.684l-0.469,0.684c-0.217,0.288-0.432,0.721-0.611,1.08
		c-0.361,0.863-1.225,1.547-1.873,1.836c-0.252,0.107-0.719,0.107-1.043,0.107h-0.432c-0.037,0-0.072-0.035-0.109-0.035
		c-1.008-0.145-1.871-1.26-2.158-2.124c-0.037-0.181-0.145-0.576-0.145-1.008c0-0.36,0-1.044,0.215-2.412
		c0.037-0.216,0.072-1.044,0.217-1.439c0-0.181,0.107-0.504,0.107-0.72v-0.396c0.037-0.108,0.109-0.468,0.145-0.792
		c0-0.18,0.035-0.144,0.035-0.216l-0.322,0.324c-0.182,0.324-0.721,0.792-1.729,2.16c-0.504,0.647-0.469,0.719-1.152,1.619
		c0,0.107-0.611,0.828-0.684,1.115c-0.145,0.396-0.721,1.152-1.225,1.801c-0.035,0.072-0.18,0.252-1.33,0.936
		c-0.324,0.145-0.613,0.359-1.152,0.396h-0.18c-0.18,0-0.432,0-1.117-0.145c-0.143-0.035-1.439-1.008-1.619-1.584
		c-0.18-0.611-0.217-1.151-0.217-1.764c0-0.324,0-0.684,0.072-1.08l0.973-5.363c0-0.216,0.18-1.224,0.18-1.224v-0.756l0.072-0.972
		l-0.145-1.62c0-0.72,0.541-1.116,0.793-1.512c0.18-0.36,1.08-0.396,1.547-0.396c0.432,0,1.367,0.36,1.477,0.612l0.395,0.612
		c0,0.036,0.217,0.396,0.252,0.396c0.072,0.252,0.072,0.288,0.072,0.576v0.972c0,0.288-0.107,0.54-0.107,0.864
		c0,0.108-0.18,0.9-0.324,1.26c-0.324,0.72-0.359,0.936-0.719,1.836l-0.541,1.295c-0.035,0.18-0.18,0.576-0.215,0.612l-0.182,0.396
		c-0.035,0.072-0.18,0.612-0.18,0.684c-0.035,0.216-0.143,0.685-0.143,0.72c-0.252,0.648-0.434,1.439-0.434,2.195
		c0,0.541,0.252,0.757,0.576,0.757c0.252,0,0.576-0.144,1.477-1.151c0.648-0.576,1.08-1.152,1.512-1.729l0.504-0.648
		c0.035-0.144,0.287-0.359,0.396-0.467l0.395-0.433c0.289-0.36,0.865-0.972,2.053-2.808c0,0,0.648-0.828,0.863-1.044l1.08-1.512
		c0.145-0.972,0.973-1.728,2.123-1.764h0.828c0.361,0,1.152,0.108,1.477,0.972l0.035,0.144v0.216c0,0.108,0.109,0.288,0.109,0.36
		c0,0.252-0.037,0.864-0.721,1.764c0,0.18-0.217,0.432-0.252,0.648l-0.107,0.252c-0.109,0.324-0.18,0.468-0.361,0.828
		c0.037,0-0.432,0.756-0.432,0.792c0,0.18-0.072,0.324-0.143,0.432c-0.252,0.504-0.252,0.54-0.252,0.54
		c-0.217,0.684-0.289,1.224-0.469,1.403c0,0.288-0.18,0.756-0.359,1.368l-0.18,0.864c0,0.035-0.037,0.107-0.037,0.144
		c-0.072,0.288-0.107,0.576-0.107,0.792c0,0.324,0.072,0.54,0.359,0.684c0.145,0.072,0.469,0.145,0.611,0.145
		c0.504,0,0.828-0.469,1.26-0.973l0.756-0.863c0.037-0.18,0.793-0.828,1.332-1.368c0.434-0.396,0.9-0.612,1.477-1.188
		c1.225-0.972,0.611-0.684,1.799-1.44l0.686-0.54c0.072-0.072,0.719-0.396,1.115-0.756l1.477-0.828
		c0.719-0.324,0.611-0.36,1.402-0.684c0,0,0.938-0.54,0.973-0.576c0.035,0,0.107-0.036,0.721-0.288l0.971-0.468l1.871-0.72
		c0.072-0.036,0.145-0.036,0.182-0.072l1.475-0.612c0.613-0.216,0.936-0.396,1.439-0.612l0.217-0.108l0.287-0.252l0.828-0.504
		c0.037,0,0.145,0,0.145-0.036c0.145,0,0.287-0.252,0.287-0.252s0.217-0.036,0.254-0.144l0.18-0.144
		c0.072-0.036,0-0.144,0.107-0.216c0.035-0.072,0.217-0.072,0.217-0.288c0.539-0.36,0.574-0.36,0.574-0.36
		c0.182,0,0.396,0,0.469,0.216c0.145,0.18,0.648,0.108,0.828,0.612c0.035,0.108,0.035,0.216,0.035,0.468
		c0.072,0.18,0.109,0.324,0.109,0.432c0,0.792-0.576,0.936-1.369,0.936c-0.215,0-0.395-0.072-0.646-0.252
		c-0.072-0.036-0.145-0.036-0.182-0.036c-0.07,0-0.143,0.072-0.287,0.072c-0.217,0.108-0.756,0.18-0.863,0.432
		c-0.145,0-0.324,0.108-0.289,0.108c0,0.036-0.145,0.108-0.648,0.396C172.363,25.107,172.184,25.144,172.146,25.18z"/>
	<path fill="#FFFFFF" d="M199.939,23.416c-0.18,0-0.432-0.072-0.539-0.072c-0.072,0-1.477,0.072-1.621,0.072
		c-0.107,0-0.791,0.036-0.971,0.108l-0.504-0.036c-2.592,0-4.5,0.18-7.129,0.18c-0.395,0-0.898,0.072-2.051,0.216l-1.799,0.216
		c-0.182,0.036-1.549,0.18-1.656,0.18h-1.836c-0.037,0-0.252,0.072-0.396,0.072s-0.467-0.072-0.539-0.072
		c-0.686,0-0.828,0.144-1.332,0.144c-0.109,0-0.289,0-0.432-0.036c-0.217,0.072-0.613,0.108-1.189,0.108
		c-0.287,0-0.539,0.036-0.863,0.036c-0.107,0-0.252,0-0.287,0.036c-0.037,0-0.18,0.072-0.18,0.504c0,0.432,0,0.828-0.037,0.828
		c0,0.108-0.035,0.216-0.035,0.324c0,2.556,0.18,2.52,0.252,3.312c0,0.432,0.791,2.556,1.008,3.131l0.143,0.36l0.217,0.288
		l0.359,0.107c0,0,0.793-1.008,1.549-1.008c0.324,0,0.971,0.252,0.971,0.433c-0.07,0.937-0.287,1.26-0.467,1.476
		c-0.252,0.324-0.18,0.324-0.576,0.721l-0.504,0.684c-0.252,0.18-0.107,0.216-0.576,0.468c-0.145,0-0.107,0.18-0.217,0.18
		c-0.18,0.144-0.359,0.216-0.611,0.216c-0.145,0-0.432-0.072-0.539-0.107c-0.145,0-0.18,0.035-0.289,0.035
		c-0.504-0.287-0.863-0.432-1.584-1.115c0-0.036-0.287-0.288-0.287-0.432c-0.359-0.36-0.324-0.541-0.504-1.152
		c0-0.18-0.217-0.828-0.217-1.476c0-0.181-0.035-0.36-0.035-0.685c-0.072-0.035-0.072-0.252-0.072-0.396v-0.216
		c0-0.324,0.072-0.684,0.072-1.044c0-0.504-0.037-0.72-0.037-1.188c0-0.144,0.072-0.432,0.072-0.648v-3.312
		c-0.072,0-0.107-0.036-0.107-0.108c0-0.036,0.035-0.432,0.035-0.468c0-0.072-0.035-0.108-0.107-0.108
		c-0.107,0-0.467-0.108-0.576-0.108h-0.791c-0.252,0-0.037-0.108-0.648-0.108c-0.504-0.144-0.756-0.324-0.756-0.648
		c-0.035,0-0.072-0.072-0.072-0.108c0-0.252,0.252-0.396,0.613-0.468c0.18,0,0.756-0.108,0.791-0.108s0.072-0.072,0.145-0.072
		c0.035,0,0.504-0.072,0.539-0.072c0.432,0,0.648-0.108,0.648-0.18v-0.288c0-0.036,0.035-0.468,0.072-0.468
		c0.035-0.612,0.18-2.124,0.252-2.124c0-1.116,0.324-1.584,0.324-2.772c0-0.072,0.143-0.144,0.143-0.216
		c0.109-0.576,0.324-1.26,0.469-2.231c0.035-0.288,0.611-2.124,0.973-3.132c0.252-0.72,0.826-2.016,1.475-2.664l0.828-0.648
		c0-0.252,0.828-0.324,1.152-0.324h0.539c0.252,0,0.576,0,0.756,0.144c0.756,0.396,1.08,1.08,1.08,1.8v0.144
		c0,0.072-0.287,0.648-0.287,0.684c-0.396,1.008-1.729,2.483-2.557,3.959c-0.611,1.116-0.648,1.296-0.936,1.944
		c0,0.036-0.359,0.612-0.359,0.648c-0.252,0.972-0.361,1.188-0.432,1.404c-0.217,0.54-0.576,1.368-0.576,1.908
		c-0.037,0.072-0.252,1.512-0.396,2.16c0.072,0.216,0.396,0.108,0.504,0.216c1.08-0.036,1.656-0.036,2.051-0.036
		c0.756,0,0.613,0.036,1.117,0.036c0-0.036,0.324-0.036,0.791-0.036c0.828,0,2.125,0.036,2.268,0.036
		c0.721,0,0.756-0.072,1.584-0.072h1.297c0.215,0,0.467-0.036,0.791-0.036c0.217,0,0.684,0,0.936,0.036h0.721
		c0.035,0,0.359-0.036,0.611-0.036c0.109,0,0.252,0,0.252,0.036c0.865,0,0.541-0.072,1.26-0.072c0.18,0,0.469,0.036,0.721,0.036
		h2.627c0.541,0,1.225,0,2.053-0.072c0.324-0.108,0.756-0.108,1.043-0.108h0.504c0.324,0,1.549,0,1.656-0.144
		c0.107,0.036,0.252,0.072,0.396,0.072c0.143,0,0.395,0.036,0.576,0.036c0.107,0,0.18,0,0.18-0.072
		c0.539-0.36,0.576-0.36,0.576-0.36c0.18,0,0.395,0,0.467,0.216c0.145,0.18,0.648,0.108,0.828,0.612
		c0.035,0.108,0.035,0.216,0.035,0.468c0.072,0.18,0.109,0.324,0.109,0.432c0,0.792-0.576,0.936-1.369,0.936
		c-0.215,0-0.395-0.072-0.646-0.252c-0.072-0.036-0.145-0.036-0.18-0.036c-0.072,0-0.145-0.576-0.289-0.576
		C200.299,23.488,200.012,23.416,199.939,23.416z"/>
	<path fill="#FFFFFF" d="M207.574,18.952c0.107,0,0.504-0.18,0.971-0.18h0.865c0.395,0,0.432-0.036,1.078-0.036h0.434
		c0.287,0,0.467,0.036,0.756,0.036h1.439c0,0,0.432,0.036,0.504,0.036c0.215,0,0.432,0.108,0.576,0.108l0.611,0.288l0.611,0.144
		c0.434,0.216,1.08,0.54,1.477,0.864c1.512,1.152,2.303,2.664,2.303,4.463V25c-0.107,1.44-0.215,2.34-0.791,3.492
		c-0.035,0.072-0.18,0.756-0.18,0.756c-0.072,0.144-0.252,0.864-0.324,0.936l-0.145,0.216c-0.072,0.072-0.539,1.152-0.646,1.296
		l-0.361,0.467c0,0-0.035,0.217-0.107,0.324l-0.107,0.576l-0.432,0.611l-0.109,0.396l-0.396,0.504l-0.07,0.288l-0.072,0.108
		c-0.037,0.035-0.217,0.072-0.324,0.072c-0.072,0-0.145,0-0.18-0.037c-0.145-0.107-0.18-0.252-0.18-0.359
		c0-0.252,0.107-0.432,0.18-0.576l0.539-0.72c0.072-0.072,0.18-0.647,0.252-0.685l0.324-0.467c0.145-0.469,0.289-1.296,0.469-1.764
		l0.432-0.756c0.072-0.108,0.215-0.576,0.287-0.648c0.037-0.324,0.072-0.504,0.145-0.792l0.18-0.828l0.18-1.188
		c0.037-0.072,0.037-0.216,0.037-0.36V25.54c0-0.216,0-0.396-0.072-0.54c0-0.468-0.217-0.756-0.648-1.188
		c-0.971-0.792-1.115-0.9-2.268-1.152c-0.252-0.036-0.756-0.288-1.043-0.324l-0.648-0.072c0,0-0.396-0.144-0.504-0.144
		c-0.145,0-0.396-0.108-0.541-0.108c-0.107,0-0.467,0.036-0.719,0.036c-0.107,0-0.252,0-0.289-0.036
		c-0.072-0.072-0.143-0.108-0.252-0.108c-0.143,0-0.287,0.036-0.539,0.072c-0.072,0-0.145,0-0.289,0.036l-0.611,0.108h-0.215
		c-0.037-0.036-0.109-0.036-0.182-0.036c-0.215,0-0.322,0.072-0.359,0.072h-0.287c-0.037-0.036-0.109-0.036-0.18-0.036l-0.469,0.072
		c-0.072,0-0.432,0.144-0.469,0.144c-0.143,0-0.287,0.144-0.539,0.144c-0.18,0.036-0.504,0.18-0.793,0.288
		c-0.07,0.036-0.107,0.036-0.143,0.036c-0.109,0-0.217-0.036-0.324-0.036c-0.396,0.216-0.756,0.396-1.008,0.396
		c-0.107,0-0.289,0.072-0.396,0.072c-0.145,0-0.215-0.036-0.359-0.18c-0.072-0.072-0.541-0.684-0.541-0.72v-0.54
		c0-0.18,0-0.432,0.289-0.828c0.504-0.756,1.404-1.188,2.16-1.44C205.846,19.42,207.537,18.952,207.574,18.952z M204.693,47.281
		c0,0.324,0.145,0.646,0.145,0.971c0,0.182-0.035,0.324-0.107,0.469c-0.396-0.324-0.648-1.08-0.648-1.729
		c0-0.359,0.035-0.684,0.217-0.898l0.07-0.252c0.252-0.182,0.576-0.252,0.721-0.469l0.107-0.035l0.145,0.07
		c0.072,0.072,0.072,0.252,0.072,0.361c0,0.252-0.072,0.539-0.18,0.684c-0.145,0.215-0.252,0.18-0.396,0.324
		C204.73,46.957,204.693,47.102,204.693,47.281z M208.51,43.25c0.396,0,0.396,0.467,0.539,0.611
		c-0.252,1.008-0.756,0.973-0.756,0.973c-0.107,0.107-0.18,0.18-0.215,0.18c-0.072,0-0.109-0.18-0.361-0.252l-0.252-0.18
		l0.217-0.469l0.035-0.324l0.182-0.18l0.143-0.217C208.258,43.285,208.402,43.25,208.51,43.25z M210.381,40.945
		c0.217,0,0.432,0.18,0.648,0.324c0,0.035-0.145,1.008-0.863,1.008c-0.217,0-0.252-0.432-0.252-0.756c0-0.18,0-0.324,0.035-0.396
		C210.094,41.018,210.273,40.945,210.381,40.945z M214.916,36.266c0,0.037,0,0.072-0.035,0.108l-0.252,0.108
		c-0.396,1.043-1.008,1.908-1.908,2.52c-0.145,0.107-0.18,0.18-0.359,0.18c-0.107,0-0.217,0-0.359-0.107
		c0.684-0.9,0.898-1.836,1.512-2.592l0.539-0.721c0.107-0.071,0.18-0.107,0.287-0.107c0.145,0,0.324,0.072,0.469,0.18
		C214.844,35.906,214.916,36.122,214.916,36.266z"/>
</g>
</svg>
