<?xml version="1.0" encoding="utf-8"?>
<!-- Generator: Adobe Illustrator 15.1.0, SVG Export Plug-In . SVG Version: 6.00 Build 0)  -->
<!DOCTYPE svg PUBLIC "-//W3C//DTD SVG 1.1//EN" "http://www.w3.org/Graphics/SVG/1.1/DTD/svg11.dtd">
<svg version="1.1" id="Layer_1" xmlns="http://www.w3.org/2000/svg" xmlns:xlink="http://www.w3.org/1999/xlink" x="0px" y="0px"
	 width="250px" height="60px" viewBox="0 0 250 60" enable-background="new 0 0 250 60" xml:space="preserve">
<g>
	<path fill="#FFFFFF" d="M46.743,22.516c0.036,0.108,0.108,0.432,0.108,0.756v0.144c-0.036,0.216-0.216,0.612-0.972,0.936
		c0,0-0.324,0.216-0.576,0.216l-0.9-0.072c-0.684-0.252-0.684-0.18-1.512-0.432c-0.252-0.072-0.792-0.144-1.188-0.288
		c-1.836-0.612-1.584-0.648-2.375-0.972c-0.072-0.036-2.232-0.828-2.34-0.828c-0.396,0-0.612-0.216-1.332-0.396
		c-0.288-0.072-0.864-0.072-1.296-0.216l-1.152-0.144c-0.396-0.144-0.72-0.18-1.008-0.18c-0.324,0-0.576,0.072-0.792,0.072
		c-0.432-0.072-0.756-0.072-1.008-0.072h-1.439c-0.144,0-0.9,0.144-1.368,0.144c-0.612,0-1.26,0.036-1.979,0.036
		c-0.216,0-0.432,0.036-0.612,0.036c-0.144,0-0.252,0.072-0.576,0.072c-0.216,0-0.612,0.036-1.296,0.216
		c-0.324,0-0.288,0.108-0.612,0.108c-0.108,0-0.288,0.036-0.468,0.036c-1.836,0.108-2.556,0.468-4.788,0.864l-1.692,0.324
		c-0.108,0.108-0.54,0.252-0.684,0.252l-0.396,0.108c-0.468,0-0.576,0.324-1.188,0.432c-0.432,0.108-0.9,0.216-1.62,0.432
		c-0.612,0.18-0.54,0.18-1.296,0.432C10.315,24.568,9.199,25,9.019,25c-0.288,0-0.252,0.18-0.756,0.18
		c-0.252,0-0.792,0.216-1.08,0.216H6.248c-0.612,0-1.008-0.216-1.296-0.432c-0.648-0.432-1.08-0.936-1.08-1.512
		c0-1.152,0.576-1.764,0.756-1.764l0.54-0.144c-0.108,0,0.792-0.072,0.792-0.108L6.572,21.4l0.72,0.18
		c0.612,0,0.936,0.36,1.152,0.36c0.036,0,0.252-0.036,0.432-0.036c0.144,0,0.972,0.072,1.152,0.108c0.216,0,0.684-0.072,1.08-0.072
		c0.216,0,0.432,0.072,0.684,0.072l0.432-0.036c0.072-0.108,0.54-0.108,0.864-0.108h0.612c0.72,0,1.224-0.18,1.908-0.252
		c0.072,0,0.072-0.036,0.144-0.036c0.468-0.072,0.612-0.108,0.9-0.108c2.556-0.36,1.656-0.252,4.967-0.756
		c0.972-0.036,1.404-0.072,2.88-0.324c0.072,0,0.612-0.072,0.72-0.072c0.144,0,0.396-0.036,0.72-0.036c0.468,0,0.936-0.18,1.44-0.18
		c0.072-0.036,1.08-0.036,1.152-0.036h0.576c0,0,0.18-0.036,0.504-0.036c0.432,0,0.36,0.036,1.62,0.072
		c0.036,0,1.116-0.036,1.26-0.036c0.036,0,1.332,0.036,1.368,0.036c1.404,0.252,1.26,0.108,3.492,0.36
		c1.98,0.252,3.636,0.36,4.211,0.54c0.36,0.072,0.684,0.108,0.9,0.108l1.224,0.252c1.224,0.072,1.043,0.108,1.872,0.144
		C45.878,21.508,46.274,21.76,46.743,22.516z"/>
	<path fill="#FFFFFF" d="M65.932,22.336c0.036-0.072,0.216-0.072,0.216-0.288c0.54-0.36,0.576-0.36,0.576-0.36
		c0.18,0,0.396,0,0.468,0.216c0.144,0.18,0.648,0.108,0.828,0.612c0.036,0.108,0.036,0.216,0.036,0.468
		c0.072,0.18,0.108,0.324,0.108,0.432c0,0.792-0.576,0.936-1.368,0.936c-0.216,0-0.648-0.252-0.648-0.252
		c-0.036-0.036-0.18-0.144-0.288-0.144c-0.252,0.108-1.152,0.108-1.296,0.288l-0.288,0.108c-0.036,0-0.252,0.072-0.864,0.36
		l-1.116,0.54c-0.612,0.144-2.304,1.116-2.52,1.188l-1.656,0.684c0,0-2.016,1.008-2.484,1.295c-1.728,1.008-2.16,1.296-3.096,1.728
		l-2.16,1.08c-0.216,0.18-0.504,0.18-0.756,0.324c-1.152,0.648-1.728,1.115-2.771,1.619c-0.864,0.433-1.656,0.973-2.736,1.477
		l-0.54,0.252c-0.576,0.359-1.583,0.792-2.124,1.08c-1.044,0.611-2.88,1.799-4.211,1.799c-2.448,0-2.88-1.043-2.988-1.547
		c-0.072,0-0.108-0.721-0.216-1.584c0.036-0.9,0.108-2.34,1.548-4.319c1.043-1.692,2.268-3.024,3.851-4.428
		c0.828-0.684,1.764-1.62,2.592-2.196c1.332-0.936,1.368-1.152,3.348-2.268c0.36-0.18,1.584-0.756,1.872-0.864
		c1.152-0.432,1.368-0.576,2.124-0.684l1.368-0.36l1.008-0.18c0.216-0.072,0.36-0.108,0.504-0.108h0.36
		c0.18,0,0.36,0.18,0.576,0.252c0.108,0.144,0.432,0.504,0.432,0.756v1.26c-0.108,0.036,0.072,0.36-0.252,0.612
		c0,0.396-0.72,1.008-1.044,1.008c-0.54,0-0.576,0.18-1.08,0.18c-0.288,0-0.828,0.072-1.08,0.072c-0.18,0-0.216,0.072-0.432,0.072
		c-0.144,0-0.504,0.144-0.648,0.18c-0.684,0.18-0.792,0.036-1.512,0.36c-0.576,0.288-1.944,0.648-2.556,1.044l-2.412,1.548
		c-0.432,0.252-1.116,1.008-1.584,1.476c-0.468,0.432-1.188,1.08-1.224,1.152c-0.108,0.18-0.648,0.612-1.008,1.116
		c-0.288,0.396-0.576,0.792-1.26,1.907c-0.252,0.396-0.36,1.08-0.54,1.512c0,0-0.036,0.217-0.036,0.432
		c0,0.613,0.396,0.721,0.792,0.721c0.324,0,1.008-0.072,1.296-0.072c0.54,0,0.792-0.252,1.62-0.504c0.108,0,0.792-0.252,1.116-0.432
		c0.36-0.217,1.296-0.612,1.404-0.612c0.468-0.18,0.432-0.144,0.828-0.323c0.216-0.108,0.936-0.36,2.627-1.045
		c0.18-0.107,0.684-0.252,0.936-0.359c0.576-0.252,3.06-1.656,3.744-1.944c1.044-0.432,1.908-1.188,5.867-3.383
		c0.144-0.072,1.583-0.648,1.62-0.72c0.576-0.288,1.728-0.828,1.728-0.828c0.036,0,0.216-0.036,1.188-0.504l0.72-0.252l1.548-0.648
		c1.044-0.432,1.08-0.432,1.188-0.432c0.108,0,0.288-0.216,0.396-0.216c0.072,0,0.252-0.072,0.252-0.108
		C65.896,22.48,65.824,22.408,65.932,22.336z"/>
	<path fill="#FFFFFF" d="M80.8,25.576l-1.583,0.756l-3.744,1.368c-0.864,0.288-2.7,1.116-3.78,1.224l-1.656,0.18
		c-0.36,0-1.224-0.144-1.332-0.18c-0.036,0-0.144-0.036-0.18-0.036c-0.468-0.036-1.26-0.684-1.8-1.152l-0.324,1.332
		c0,0.036-0.072,0.18-0.18,0.396c0,0.036-0.072,0.108-0.072,0.18l-0.72,2.124c-0.108,0.181-0.18,0.288-0.252,0.504
		c-0.216,0.433-0.432,0.828-0.612,1.116l-0.612,0.972c-0.18,0.252-0.468,0.756-0.684,0.972c-0.108,0.217-0.72,0.864-0.936,1.152
		c0,0.107-1.043,1.008-1.043,1.008s-0.468,0.467-1.152,0.791c-0.252,0.145-0.684,0.252-0.828,0.252c-0.108,0-0.396,0.109-0.54,0.109
		c-0.684,0-1.08-0.182-1.152-0.217c-0.432-0.287-0.828-0.684-1.08-1.619c0-0.037-0.144-0.217-0.18-0.756
		c-0.036-0.181-0.108-0.433-0.108-0.793c0-0.252,0-0.539,0.036-0.828l0.108-0.504c0-0.071,0.072-1.008,0.792-2.482l0.648-1.369
		c0.252-0.468,0.324-0.756,0.36-0.792l1.764-3.06c0.216-0.252,0.324-0.576,0.612-0.828c0.144-0.252,1.08-1.476,1.152-1.584
		c0.252-0.396,0.504-0.792,0.936-1.08l0.54-0.36c-0.036-0.036,0.612-0.252,0.684-0.252l0.432-0.072c0.324,0,0.684,0.108,0.864,0.216
		l0.18-0.252c0.18-0.144,0.54-0.324,1.188-0.324c1.295,0,2.016,1.62,2.016,2.16c0,0.072,0.036,0.36,0.072,0.612l0.108,0.972
		c0.036,0.324,0,0.468,0.108,0.936c0.108,0.54,1.043,1.188,1.656,1.188h0.648c0.648,0,1.332,0,1.728-0.144
		c1.368-0.36,1.764-0.54,1.836-0.54c0.72-0.144,2.196-0.684,3.852-1.44l3.167-1.44l0.432-0.144l1.116-0.72
		c0.036,0,0.144,0,0.144-0.036c0.144,0,0.288-0.252,0.288-0.252s0.216-0.036,0.252-0.144l0.18-0.144
		c0.072-0.036,0-0.144,0.108-0.216c0.036-0.072,0.216-0.072,0.216-0.288c0.54-0.36,0.576-0.36,0.576-0.36
		c0.18,0,0.396,0,0.468,0.216c0.144,0.18,0.648,0.108,0.828,0.612c0.036,0.108,0.036,0.216,0.036,0.468
		c0.072,0.18,0.108,0.324,0.108,0.432c0,0.792-0.576,0.936-1.368,0.936c-0.216,0-0.396-0.072-0.647-0.252
		c-0.072-0.036-0.144-0.036-0.18-0.036c-0.072,0-0.144,0.072-0.288,0.072c-0.216,0.108-0.54,0.144-0.756,0.36
		c-0.144,0-0.432,0.18-0.396,0.18c0,0.036-0.18,0.072-0.684,0.36C81.772,25.215,81.34,25.324,80.8,25.576z M59.311,35.438
		c0.108,0.071,0.324,0.18,0.468,0.18l0.684-0.071c0.144,0,0.396-0.108,0.72-0.36c0.756-0.54,0.972-0.828,1.439-1.476
		c0.324-0.469,0.54-0.685,0.756-1.116l0.9-1.548c0.216-0.396,0.504-1.188,0.684-1.656l0.468-1.368
		c0.216-0.612,0.252-1.08,0.432-1.728c0-0.108-0.036-0.288-0.072-0.396l-0.504-0.468c-0.396-0.288-0.396-0.324-0.432-0.324
		c-0.108,0-0.18,0.216-0.54,0.504l-0.18,0.144c-0.576,0.432-1.152,0.864-1.547,1.332c-0.036,0.108-0.108,0.108-0.18,0.18l-0.18,0.18
		c-0.036,0.072-0.36,0.432-0.36,0.432c-0.936,1.188-1.224,1.8-1.548,2.556c-0.396,0.684-0.36,0.864-0.648,1.62
		c-0.252,0.54-0.36,1.008-0.468,1.548c-0.072,0.288-0.036,0.181-0.108,0.72c0,0.107,0,0.252-0.036,0.432
		C59.059,34.862,59.275,35.366,59.311,35.438z"/>
	<path fill="#FFFFFF" d="M116.654,25.755c-0.648,0.252-2.268,1.44-2.52,1.44l-1.836,1.116c0,0-3.6,2.412-3.6,2.448
		c-0.144,0-3.888,3.096-4.067,3.239c-1.296,1.008-0.18,0.396-3.6,2.736c-0.252,0.107-0.396,0.145-0.612,0.145
		c-1.116,0-2.556-1.009-2.736-3.492c-0.036-0.36-0.108-1.477-0.108-1.62s0.108-1.656,0.108-1.872c0-0.288-0.18-1.692-0.252-2.412
		c-0.036-0.288-0.468-0.576-0.72-0.576c-0.54,0-1.62,0.396-3.348,1.908c-0.252,0.324-0.54,0.504-1.26,1.224
		c-0.792,0.792-0.828,0.756-0.9,0.9c-0.864,0.9-1.116,1.223-1.548,1.835c-0.504,0.647-0.612,0.685-1.332,1.728
		c-0.288,0.433-0.648,0.828-0.864,1.368c-0.54,0.54-0.9,1.296-1.584,2.017c-0.72,0.826-1.62,1.654-2.375,1.654
		c-0.648,0-1.62-0.791-2.016-1.26c-0.216-0.252-0.252-0.359-0.36-0.828l0.072-0.684c0-0.144,0.18-1.295,0.18-1.403l0.324-1.296
		c0.612-1.764,1.08-2.52,1.224-3.383c0.288-1.26,0.864-2.412,0.864-3.852c0-0.36-0.036-0.756-0.072-1.26l-0.108-1.08
		c-0.252-0.288-0.036-0.288-0.36-0.648c-0.144-0.108-0.18-0.216-0.18-0.252c0-0.072,0.036-0.108,0.036-0.18
		c0-0.108,0.18-0.18,0.18-0.288c0.108-0.432,0.576-0.54,0.612-0.684c0.648-0.648,1.044-0.9,1.692-0.9
		c2.339,0.216,2.339,1.296,2.339,2.412c0,0.468-0.144,0.684-0.18,1.116c-0.072,0.684-0.288,1.368-0.432,2.304l-0.36,2.16
		c-0.18,1.188-0.18,0.756-0.324,1.979c-0.072,0.685-0.396,1.26-0.468,1.979c0.288,0.037,1.836-1.584,2.232-2.016l4.391-4.571
		c1.512-1.548,2.304-2.052,3.708-3.06c0.828-0.576,1.476-0.648,2.556-0.648c1.188,0,2.016,1.476,2.016,3.959
		c0,0.72-0.072,0.756-0.072,1.116c0,0.54-0.036,1.728-0.18,2.987c0.072,0.937,1.332,1.692,2.052,1.692
		c0.36,0,0.864-0.217,1.08-0.324c0.468-0.396,1.116-0.576,2.268-1.404l5.184-3.708l1.584-0.936l0.756-0.54
		c0,0,0.576-0.288,0.54-0.288c0-0.036,0.18-0.252,1.548-0.936l1.944-0.972l1.152-0.72c0.036,0,0.144,0,0.144-0.036
		c0.108,0,0.288-0.252,0.288-0.252s0.18-0.036,0.252-0.144l0.18-0.144c0.036-0.036,0-0.144,0.072-0.216
		c0.072-0.072,0.252-0.072,0.252-0.288c0.54-0.36,0.576-0.36,0.576-0.36c0.144,0,0.396,0,0.432,0.216
		c0.18,0.18,0.648,0.108,0.864,0.612c0.036,0.108,0.036,0.216,0.036,0.468c0.072,0.18,0.072,0.324,0.072,0.432
		c0,0.792-0.54,0.936-1.332,0.936c-0.216,0-0.396-0.072-0.648-0.252c-0.072-0.036-0.144-0.036-0.18-0.036
		c-0.108,0-0.144,0.072-0.288,0.072c-0.216,0.108-0.792,0.18-0.864,0.432c-0.144,0-0.324,0.108-0.288,0.108
		c0,0.036-0.252,0.18-0.756,0.468L116.654,25.755z"/>
	<path fill="#FFFFFF" d="M145.346,23.416c-0.18,0-0.432-0.072-0.539-0.072c-0.072,0-1.477,0.072-1.619,0.072
		c-0.109,0-0.793,0.036-0.973,0.108l-0.504-0.036c-2.592,0-4.5,0.18-7.127,0.18c-0.396,0-0.9,0.072-2.052,0.216l-1.8,0.216
		c-0.18,0.036-1.548,0.18-1.656,0.18h-1.836c-0.035,0-0.252,0.072-0.396,0.072s-0.468-0.072-0.54-0.072
		c-0.684,0-0.828,0.144-1.332,0.144c-0.108,0-0.288,0-0.432-0.036c-0.216,0.072-0.612,0.108-1.188,0.108
		c-0.288,0-0.54,0.036-0.864,0.036c-0.108,0-0.252,0-0.288,0.036c-0.036,0-0.18,0.072-0.18,0.504c0,0.432,0,0.828-0.036,0.828
		c0,0.108-0.036,0.216-0.036,0.324c0,2.556,0.18,2.52,0.252,3.312c0,0.432,0.792,2.556,1.008,3.131l0.144,0.36l0.216,0.288
		l0.36,0.107c0,0,0.792-1.008,1.548-1.008c0.324,0,0.972,0.252,0.972,0.433c-0.072,0.937-0.288,1.26-0.468,1.476
		c-0.252,0.324-0.18,0.324-0.576,0.721l-0.504,0.684c-0.252,0.18-0.108,0.216-0.576,0.468c-0.144,0-0.108,0.18-0.216,0.18
		c-0.18,0.144-0.36,0.216-0.612,0.216c-0.144,0-0.432-0.072-0.54-0.107c-0.144,0-0.18,0.035-0.288,0.035
		c-0.504-0.287-0.864-0.432-1.584-1.115c0-0.036-0.288-0.288-0.288-0.432c-0.36-0.36-0.324-0.541-0.504-1.152
		c0-0.18-0.216-0.828-0.216-1.476c0-0.181-0.036-0.36-0.036-0.685c-0.072-0.035-0.072-0.252-0.072-0.396v-0.216
		c0-0.324,0.072-0.684,0.072-1.044c0-0.504-0.036-0.72-0.036-1.188c0-0.144,0.072-0.432,0.072-0.648v-3.312
		c-0.072,0-0.108-0.036-0.108-0.108c0-0.036,0.036-0.432,0.036-0.468c0-0.072-0.036-0.108-0.108-0.108
		c-0.108,0-0.468-0.108-0.576-0.108h-0.792c-0.252,0-0.036-0.108-0.648-0.108c-0.504-0.144-0.756-0.324-0.756-0.648
		c-0.036,0-0.072-0.072-0.072-0.108c0-0.252,0.252-0.396,0.612-0.468c0.18,0,0.756-0.108,0.792-0.108s0.072-0.072,0.144-0.072
		c0.036,0,0.504-0.072,0.54-0.072c0.432,0,0.648-0.108,0.648-0.18v-0.288c0-0.036,0.036-0.468,0.072-0.468
		c0.036-0.612,0.18-2.124,0.252-2.124c0-1.116,0.324-1.584,0.324-2.772c0-0.072,0.144-0.144,0.144-0.216
		c0.108-0.576,0.324-1.26,0.468-2.231c0.036-0.288,0.612-2.124,0.972-3.132c0.252-0.72,0.828-2.016,1.476-2.664l0.828-0.648
		c0-0.252,0.828-0.324,1.152-0.324h0.541c0.252,0,0.575,0,0.756,0.144c0.756,0.396,1.08,1.08,1.08,1.8v0.144
		c0,0.072-0.289,0.648-0.289,0.684c-0.396,1.008-1.728,2.483-2.555,3.959c-0.612,1.116-0.648,1.296-0.936,1.944
		c0,0.036-0.36,0.612-0.36,0.648c-0.252,0.972-0.36,1.188-0.432,1.404c-0.216,0.54-0.576,1.368-0.576,1.908
		c-0.036,0.072-0.252,1.512-0.396,2.16c0.072,0.216,0.396,0.108,0.504,0.216c1.08-0.036,1.656-0.036,2.052-0.036
		c0.756,0,0.612,0.036,1.116,0.036c0-0.036,0.324-0.036,0.792-0.036c0.828,0,2.123,0.036,2.268,0.036
		c0.72,0,0.756-0.072,1.584-0.072h1.295c0.217,0,0.469-0.036,0.793-0.036c0.215,0,0.684,0,0.936,0.036h0.72
		c0.036,0,0.36-0.036,0.612-0.036c0.107,0,0.252,0,0.252,0.036c0.863,0,0.539-0.072,1.26-0.072c0.18,0,0.467,0.036,0.719,0.036
		h2.629c0.539,0,1.223,0,2.051-0.072c0.324-0.108,0.756-0.108,1.045-0.108h0.504c0.324,0,1.547,0,1.654-0.144
		c0.109,0.036,0.252,0.072,0.396,0.072s0.396,0.036,0.576,0.036c0.107,0,0.18,0,0.18-0.072c0.541-0.36,0.576-0.36,0.576-0.36
		c0.18,0,0.396,0,0.469,0.216c0.143,0.18,0.646,0.108,0.828,0.612c0.035,0.108,0.035,0.216,0.035,0.468
		c0.072,0.18,0.107,0.324,0.107,0.432c0,0.792-0.576,0.936-1.367,0.936c-0.217,0-0.396-0.072-0.648-0.252
		c-0.072-0.036-0.145-0.036-0.18-0.036c-0.072,0-0.145-0.576-0.287-0.576C145.707,23.488,145.418,23.416,145.346,23.416z"/>
	<path fill="#FFFFFF" d="M145.926,21.904c0.684-0.396,1.08-0.54,2.123-0.54h0.613c0.215,0,1.08,0.54,1.15,0.648
		c0,0,0.686,0.72,0.686,1.151c0,0.144-0.109,0.324-0.109,0.576c0,0.504-0.107,0.972-0.107,1.512c0,0.612-0.252,1.584-0.252,1.98
		c0,0.72-0.035,1.439-0.035,2.231c0,0.396-0.072,0.828-0.072,1.188c0,0.972,0.072,1.835,0.611,2.664
		c0.828,1.296,0.791,0.936,1.332,1.332l0.396,0.324c0.215,0.18,0.18,0.18,0.574,0.359c0.756,0.36,0.721,0.36,0.721,0.36
		c0,0.036,0.469,0.252,0.973,0.252c0.252,0,0.504,0,0.756-0.144c0.646-0.181,0.611-0.289,1.043-0.541
		c2.881-2.123,2.088-1.584,4.645-3.995l1.691-1.583l2.592-2.16c0.072-0.036,1.26-0.828,1.906-1.439c0,0,0.469-0.288,0.434-0.288
		c0-0.036,0.18-0.18,1.26-0.936l0.756-0.504l0.684-0.396c0,0,0.18,0,0.432-0.324l0.828-0.504c0.035,0,0.145,0,0.145-0.036
		c0.143,0,0.287-0.252,0.287-0.252s0.217-0.036,0.252-0.144l0.18-0.144c0.072-0.036,0-0.144,0.107-0.216
		c0.037-0.072,0.217-0.072,0.217-0.288c0.541-0.36,0.576-0.36,0.576-0.36c0.18,0,0.396,0,0.469,0.216
		c0.143,0.18,0.646,0.108,0.826,0.612c0.037,0.108,0.037,0.216,0.037,0.468c0.072,0.18,0.107,0.324,0.107,0.432
		c0,0.792-0.576,0.936-1.367,0.936c-0.217,0-0.396-0.072-0.648-0.252c-0.072-0.036-0.145-0.036-0.18-0.036
		c-0.072,0-0.145,0.072-0.289,0.072c-0.215,0.108-0.756,0.18-0.863,0.432c-0.145,0-0.324,0.108-0.287,0.108
		c0,0.036-0.145,0.18-1.188,0.828c-0.182,0.072-0.289,0.18-0.396,0.288c-0.541,0.252-1.873,1.44-2.088,1.44l-1.367,0.936
		c0,0-3.061,2.592-3.096,2.592c-0.037,0-3.133,3.239-3.275,3.239c-0.686,0.504-0.072,0.252-2.521,2.124l-0.646,0.433
		c-0.217,0.071-0.469,0.395-0.9,0.684c-0.611,0.539-1.188,1.043-2.771,1.08c-0.756,0-1.943-0.576-2.557-1.152
		c-0.07,0-0.828-0.648-1.115-0.9c-0.611-0.539-0.973-1.188-1.26-1.512c-0.359-0.899-0.539-1.115-0.684-1.728
		c-0.107-0.396-0.359-2.268-0.359-3.563c0-0.18-0.037-0.468-0.037-0.576v-0.432c0-0.144,0-0.252-0.035-0.432v-0.432
		c0-0.612,0.107-0.756,0.107-1.152c0-0.036,0-0.144-0.107-0.144c-0.18,0-0.18,0.288-0.217,0.324
		c-0.18,0.216-0.467,0.792-0.539,0.972c-0.109,0.252-0.541,0.684-0.828,1.08c-0.037,0.036-0.469,0.828-0.469,0.864
		c-0.145,0.396-0.432,0.684-0.828,1.296c-0.756,1.116-0.324,0.864-1.943,2.915l-0.107,0.18c-0.541,0.828-1.621,1.621-2.412,2.16
		c-0.145,0.108-0.145,0.145-0.18,0.145c-0.217,0.107-1.008,0.504-1.801,0.504c-0.791,0-1.691-0.864-1.943-1.477
		c-0.072-0.144-0.035-0.144-0.252-0.504c-0.144-0.252-0.18-0.467-0.18-0.791v-0.289c0.359-1.764,0.432-1.331,0.863-2.303
		c-0.107,0.072,0.576-1.044,0.613-1.116c0-0.072,0.756-1.08,1.26-1.692c0-0.072,0.791-0.828,0.863-0.864
		c0.107-0.108,0.396-0.468,1.152-1.152c0.648-0.612,0.936-0.828,1.439-1.368c0.359-0.216,1.08-0.864,1.367-0.972
		c0.361-0.216,1.188-1.116,1.836-1.476L145.926,21.904z M136.818,33.207c0,0.359,0.18,0.504,0.541,0.504
		c0.035,0,0.107,0.035,0.18,0.035c0.18,0,0.504-0.072,0.936-0.359c0.072,0,0.828-0.648,0.973-0.612
		c0.359-0.432,0.898-0.756,1.367-1.224s2.736-2.592,4.5-5.075c0.18-0.18,0.432-0.54,0.684-0.792c-0.037-0.18,0.9-0.972,0.9-1.296
		c0-0.108,0-0.144-0.217-0.144c-0.072,0-0.072,0.036-0.396,0.036c-1.223,0-1.439,0.576-1.943,0.72c0-0.072-0.936,0.648-1.332,0.864
		c-0.18,0.036-0.936,0.468-2.088,1.692c0.109-0.072-0.791,0.864-1.439,1.512c-0.217,0.072-0.539,0.504-0.791,0.864
		c-0.252,0.324-0.576,0.576-1.152,1.44c-0.18,0.252-0.289,0.576-0.324,0.684c-0.145,0.359-0.18,0.432-0.324,0.648L136.818,33.207z"
		/>
	<path fill="#FFFFFF" d="M193.838,22.336c0.037-0.072,0.217-0.072,0.217-0.288c0.539-0.36,0.576-0.36,0.576-0.36
		c0.18,0,0.395,0,0.467,0.216c0.145,0.18,0.648,0.108,0.828,0.612c0.035,0.108,0.035,0.216,0.035,0.468
		c0.072,0.18,0.109,0.324,0.109,0.432c0,0.792-0.576,0.936-1.369,0.936c-0.215,0-0.646-0.252-0.646-0.252
		c-0.037-0.036-0.18-0.144-0.289-0.144c-0.252,0.108-1.15,0.108-1.295,0.288l-0.289,0.108c-0.035,0-0.252,0.072-0.863,0.36
		l-1.115,0.54c-0.613,0.144-2.305,1.116-2.52,1.188l-1.656,0.684c0,0-2.016,1.008-2.484,1.295c-1.727,1.008-2.16,1.296-3.096,1.728
		l-2.16,1.08c-0.215,0.18-0.504,0.18-0.756,0.324c-1.15,0.648-1.727,1.115-2.771,1.619c-0.863,0.433-1.654,0.973-2.734,1.477
		l-0.541,0.252c-0.576,0.359-1.584,0.792-2.123,1.08c-1.045,0.611-2.879,1.799-4.211,1.799c-2.449,0-2.881-1.043-2.988-1.547
		c-0.072,0-0.107-0.721-0.217-1.584c0.037-0.9,0.109-2.34,1.549-4.319c1.043-1.692,2.268-3.024,3.852-4.428
		c0.828-0.684,1.764-1.62,2.592-2.196c1.332-0.936,1.367-1.152,3.348-2.268c0.359-0.18,1.584-0.756,1.871-0.864
		c1.152-0.432,1.367-0.576,2.123-0.684l1.369-0.36l1.008-0.18c0.215-0.072,0.359-0.108,0.504-0.108h0.359
		c0.18,0,0.359,0.18,0.576,0.252c0.107,0.144,0.432,0.504,0.432,0.756v1.26c-0.107,0.036,0.072,0.36-0.252,0.612
		c0,0.396-0.719,1.008-1.043,1.008c-0.541,0-0.576,0.18-1.08,0.18c-0.289,0-0.828,0.072-1.08,0.072c-0.18,0-0.217,0.072-0.432,0.072
		c-0.145,0-0.504,0.144-0.648,0.18c-0.684,0.18-0.791,0.036-1.512,0.36c-0.576,0.288-1.943,0.648-2.557,1.044l-2.41,1.548
		c-0.432,0.252-1.117,1.008-1.584,1.476c-0.469,0.432-1.188,1.08-1.225,1.152c-0.107,0.18-0.648,0.612-1.008,1.116
		c-0.287,0.396-0.576,0.792-1.26,1.907c-0.252,0.396-0.359,1.08-0.539,1.512c0,0-0.037,0.217-0.037,0.432
		c0,0.613,0.396,0.721,0.793,0.721c0.324,0,1.008-0.072,1.295-0.072c0.541,0,0.793-0.252,1.619-0.504
		c0.109,0,0.793-0.252,1.117-0.432c0.359-0.217,1.295-0.612,1.404-0.612c0.467-0.18,0.432-0.144,0.826-0.323
		c0.217-0.108,0.938-0.36,2.629-1.045c0.18-0.107,0.684-0.252,0.936-0.359c0.576-0.252,3.061-1.656,3.744-1.944
		c1.043-0.432,1.906-1.188,5.867-3.383c0.143-0.072,1.584-0.648,1.619-0.72c0.576-0.288,1.729-0.828,1.729-0.828
		c0.035,0,0.215-0.036,1.188-0.504l0.719-0.252l1.549-0.648c1.043-0.432,1.08-0.432,1.188-0.432s0.289-0.216,0.396-0.216
		c0.072,0,0.252-0.072,0.252-0.108C193.803,22.48,193.73,22.408,193.838,22.336z"/>
	<path fill="#FFFFFF" d="M218.605,23.416c-0.18,0-0.432-0.072-0.539-0.072c-0.072,0-1.477,0.072-1.621,0.072
		c-0.107,0-0.791,0.036-0.971,0.108l-0.504-0.036c-2.592,0-4.5,0.18-7.129,0.18c-0.395,0-0.898,0.072-2.051,0.216l-1.799,0.216
		c-0.182,0.036-1.549,0.18-1.656,0.18H200.5c-0.037,0-0.252,0.072-0.396,0.072s-0.467-0.072-0.539-0.072
		c-0.686,0-0.828,0.144-1.332,0.144c-0.109,0-0.289,0-0.432-0.036c-0.217,0.072-0.613,0.108-1.189,0.108
		c-0.287,0-0.539,0.036-0.863,0.036c-0.107,0-0.252,0-0.287,0.036c-0.037,0-0.18,0.072-0.18,0.504c0,0.432,0,0.828-0.037,0.828
		c0,0.108-0.035,0.216-0.035,0.324c0,2.556,0.18,2.52,0.252,3.312c0,0.432,0.791,2.556,1.008,3.131l0.143,0.36l0.217,0.288
		l0.359,0.107c0,0,0.793-1.008,1.549-1.008c0.324,0,0.971,0.252,0.971,0.433c-0.07,0.937-0.287,1.26-0.467,1.476
		c-0.252,0.324-0.18,0.324-0.576,0.721l-0.504,0.684c-0.252,0.18-0.107,0.216-0.576,0.468c-0.145,0-0.107,0.18-0.217,0.18
		c-0.18,0.144-0.359,0.216-0.611,0.216c-0.145,0-0.432-0.072-0.539-0.107c-0.145,0-0.18,0.035-0.289,0.035
		c-0.504-0.287-0.863-0.432-1.584-1.115c0-0.036-0.287-0.288-0.287-0.432c-0.359-0.36-0.324-0.541-0.504-1.152
		c0-0.18-0.217-0.828-0.217-1.476c0-0.181-0.035-0.36-0.035-0.685c-0.072-0.035-0.072-0.252-0.072-0.396v-0.216
		c0-0.324,0.072-0.684,0.072-1.044c0-0.504-0.037-0.72-0.037-1.188c0-0.144,0.072-0.432,0.072-0.648v-3.312
		c-0.072,0-0.107-0.036-0.107-0.108c0-0.036,0.035-0.432,0.035-0.468c0-0.072-0.035-0.108-0.107-0.108
		c-0.107,0-0.467-0.108-0.576-0.108h-0.791c-0.252,0-0.037-0.108-0.648-0.108c-0.504-0.144-0.756-0.324-0.756-0.648
		c-0.035,0-0.072-0.072-0.072-0.108c0-0.252,0.252-0.396,0.613-0.468c0.18,0,0.756-0.108,0.791-0.108s0.072-0.072,0.145-0.072
		c0.035,0,0.504-0.072,0.539-0.072c0.432,0,0.648-0.108,0.648-0.18v-0.288c0-0.036,0.035-0.468,0.072-0.468
		c0.035-0.612,0.18-2.124,0.252-2.124c0-1.116,0.324-1.584,0.324-2.772c0-0.072,0.143-0.144,0.143-0.216
		c0.109-0.576,0.324-1.26,0.469-2.231c0.035-0.288,0.611-2.124,0.973-3.132c0.252-0.72,0.826-2.016,1.475-2.664l0.828-0.648
		c0-0.252,0.828-0.324,1.152-0.324h0.539c0.252,0,0.576,0,0.756,0.144c0.756,0.396,1.08,1.08,1.08,1.8v0.144
		c0,0.072-0.287,0.648-0.287,0.684c-0.396,1.008-1.729,2.483-2.557,3.959c-0.611,1.116-0.648,1.296-0.936,1.944
		c0,0.036-0.359,0.612-0.359,0.648c-0.252,0.972-0.361,1.188-0.432,1.404c-0.217,0.54-0.576,1.368-0.576,1.908
		c-0.037,0.072-0.252,1.512-0.396,2.16c0.072,0.216,0.396,0.108,0.504,0.216c1.08-0.036,1.656-0.036,2.051-0.036
		c0.756,0,0.613,0.036,1.117,0.036c0-0.036,0.324-0.036,0.791-0.036c0.828,0,2.125,0.036,2.268,0.036
		c0.721,0,0.756-0.072,1.584-0.072h1.297c0.215,0,0.467-0.036,0.791-0.036c0.217,0,0.684,0,0.936,0.036h0.721
		c0.035,0,0.359-0.036,0.611-0.036c0.109,0,0.252,0,0.252,0.036c0.865,0,0.541-0.072,1.26-0.072c0.18,0,0.469,0.036,0.721,0.036
		h2.627c0.541,0,1.225,0,2.053-0.072c0.324-0.108,0.756-0.108,1.043-0.108h0.504c0.324,0,1.549,0,1.656-0.144
		c0.107,0.036,0.252,0.072,0.396,0.072c0.143,0,0.395,0.036,0.576,0.036c0.107,0,0.18,0,0.18-0.072
		c0.539-0.36,0.576-0.36,0.576-0.36c0.18,0,0.395,0,0.467,0.216c0.145,0.18,0.648,0.108,0.828,0.612
		c0.035,0.108,0.035,0.216,0.035,0.468c0.072,0.18,0.109,0.324,0.109,0.432c0,0.792-0.576,0.936-1.369,0.936
		c-0.215,0-0.395-0.072-0.646-0.252c-0.072-0.036-0.145-0.036-0.18-0.036c-0.072,0-0.145-0.576-0.289-0.576
		C218.965,23.488,218.678,23.416,218.605,23.416z"/>
	<path fill="#FFFFFF" d="M226.24,18.952c0.107,0,0.504-0.18,0.971-0.18h0.865c0.395,0,0.432-0.036,1.078-0.036h0.434
		c0.287,0,0.467,0.036,0.756,0.036h1.439c0,0,0.432,0.036,0.504,0.036c0.215,0,0.432,0.108,0.576,0.108l0.611,0.288l0.611,0.144
		c0.434,0.216,1.08,0.54,1.477,0.864c1.512,1.152,2.303,2.664,2.303,4.463V25c-0.107,1.44-0.215,2.34-0.791,3.492
		c-0.035,0.072-0.18,0.756-0.18,0.756c-0.072,0.144-0.252,0.864-0.324,0.936l-0.145,0.216c-0.072,0.072-0.539,1.152-0.646,1.296
		l-0.361,0.467c0,0-0.035,0.217-0.107,0.324l-0.107,0.576l-0.432,0.611l-0.109,0.396l-0.396,0.504l-0.07,0.288l-0.072,0.108
		c-0.037,0.035-0.217,0.072-0.324,0.072c-0.072,0-0.145,0-0.18-0.037c-0.145-0.107-0.18-0.252-0.18-0.359
		c0-0.252,0.107-0.432,0.18-0.576l0.539-0.72c0.072-0.072,0.18-0.647,0.252-0.685l0.324-0.467c0.145-0.469,0.289-1.296,0.469-1.764
		l0.432-0.756c0.072-0.108,0.215-0.576,0.287-0.648c0.037-0.324,0.072-0.504,0.145-0.792l0.18-0.828l0.18-1.188
		c0.037-0.072,0.037-0.216,0.037-0.36V25.54c0-0.216,0-0.396-0.072-0.54c0-0.468-0.217-0.756-0.648-1.188
		c-0.971-0.792-1.115-0.9-2.268-1.152c-0.252-0.036-0.756-0.288-1.043-0.324l-0.648-0.072c0,0-0.396-0.144-0.504-0.144
		c-0.145,0-0.396-0.108-0.541-0.108c-0.107,0-0.467,0.036-0.719,0.036c-0.107,0-0.252,0-0.289-0.036
		c-0.072-0.072-0.143-0.108-0.252-0.108c-0.143,0-0.287,0.036-0.539,0.072c-0.072,0-0.145,0-0.289,0.036l-0.611,0.108h-0.215
		c-0.037-0.036-0.109-0.036-0.182-0.036c-0.215,0-0.322,0.072-0.359,0.072h-0.287c-0.037-0.036-0.109-0.036-0.18-0.036l-0.469,0.072
		c-0.072,0-0.432,0.144-0.469,0.144c-0.143,0-0.287,0.144-0.539,0.144c-0.18,0.036-0.504,0.18-0.793,0.288
		c-0.07,0.036-0.107,0.036-0.143,0.036c-0.109,0-0.217-0.036-0.324-0.036c-0.396,0.216-0.756,0.396-1.008,0.396
		c-0.107,0-0.289,0.072-0.396,0.072c-0.145,0-0.215-0.036-0.359-0.18c-0.072-0.072-0.541-0.684-0.541-0.72v-0.54
		c0-0.18,0-0.432,0.289-0.828c0.504-0.756,1.404-1.188,2.16-1.44C224.512,19.42,226.203,18.952,226.24,18.952z M223.359,47.281
		c0,0.324,0.145,0.646,0.145,0.971c0,0.182-0.035,0.324-0.107,0.469c-0.396-0.324-0.648-1.08-0.648-1.729
		c0-0.359,0.035-0.684,0.217-0.898l0.07-0.252c0.252-0.182,0.576-0.252,0.721-0.469l0.107-0.035l0.145,0.07
		c0.072,0.072,0.072,0.252,0.072,0.361c0,0.252-0.072,0.539-0.18,0.684c-0.145,0.215-0.252,0.18-0.396,0.324
		C223.396,46.957,223.359,47.102,223.359,47.281z M227.176,43.25c0.396,0,0.396,0.467,0.539,0.611
		c-0.252,1.008-0.756,0.973-0.756,0.973c-0.107,0.107-0.18,0.18-0.215,0.18c-0.072,0-0.109-0.18-0.361-0.252l-0.252-0.18
		l0.217-0.469l0.035-0.324l0.182-0.18l0.143-0.217C226.924,43.285,227.068,43.25,227.176,43.25z M229.047,40.945
		c0.217,0,0.432,0.18,0.648,0.324c0,0.035-0.145,1.008-0.863,1.008c-0.217,0-0.252-0.432-0.252-0.756c0-0.18,0-0.324,0.035-0.396
		C228.76,41.018,228.939,40.945,229.047,40.945z M233.582,36.266c0,0.037,0,0.072-0.035,0.108l-0.252,0.108
		c-0.396,1.043-1.008,1.908-1.908,2.52c-0.145,0.107-0.18,0.18-0.359,0.18c-0.107,0-0.217,0-0.359-0.107
		c0.684-0.9,0.898-1.836,1.512-2.592l0.539-0.721c0.107-0.071,0.18-0.107,0.287-0.107c0.145,0,0.324,0.072,0.469,0.18
		C233.51,35.906,233.582,36.122,233.582,36.266z"/>
</g>
</svg>
