<?xml version="1.0" encoding="utf-8"?>
<!-- Generator: Adobe Illustrator 15.1.0, SVG Export Plug-In . SVG Version: 6.00 Build 0)  -->
<!DOCTYPE svg PUBLIC "-//W3C//DTD SVG 1.1//EN" "http://www.w3.org/Graphics/SVG/1.1/DTD/svg11.dtd">
<svg version="1.1" id="Layer_1" xmlns="http://www.w3.org/2000/svg" xmlns:xlink="http://www.w3.org/1999/xlink" x="0px" y="0px"
	 width="250px" height="60px" viewBox="0 0 250 60" enable-background="new 0 0 250 60" xml:space="preserve">
<g enable-background="new    ">
	<path d="M42.797,18.086c-0.108,0.107-0.216,0.144-0.324,0.18c-0.108,0.072-0.576,0.252-1.476,0.828
		c-0.684,0.323-1.188,0.72-1.764,1.044c0.036,0.107-0.504,0.252-0.972,0.611c0,0-0.108,0.036-0.18,0.072l-1.152,0.899
		c-0.036-0.036-1.116,0.648-1.296,0.756c-0.576,0.433-0.864,0.504-1.26,0.792c-1.296,1.008-1.583,1.08-1.979,1.368
		c-0.036,0-1.044,0.792-1.332,0.972l-0.9,0.54c-0.612,0.252-0.9,0.684-1.872,1.044c-0.036,0-0.072,0.072-0.144,0.072
		c-0.288,0-1.224,0.684-2.592,1.26c-0.612,0.359-1.583,0.647-2.448,0.863c-0.072,0-0.072,0.036-0.144,0.036
		c-0.576,0.216-1.188,0.468-1.872,0.612l-1.368,0.432c-0.144,0.036-1.116,0.252-1.224,0.252c0,0-0.324,0.108-0.468,0.108
		c-0.324,0-1.152,0.288-1.8,0.396c-0.432,0.108-0.648,0.216-1.224,0.216c-0.36,0-0.396,0.036-0.828,0.072h-1.152
		c-0.612,0-0.9-0.216-1.332-0.396c-0.18-0.108-0.504-0.324-0.648-0.469c-0.36,0-0.72-0.791-0.72-0.791
		c0-0.072-0.072-0.396-0.072-0.504c0-0.433,0.252-0.864,0.54-1.261c0.18-0.18,0.828-0.611,1.116-0.72c0,0,0.648-0.18,1.008-0.18
		c0.396,0,0.432-0.072,0.936-0.072c0.72,0,1.439,0.072,2.52,0.072c0.18,0,0.36,0.072,0.612,0.072h0.72
		c0.396,0,1.116-0.072,1.26-0.072c-0.036,0,0.684-0.108,1.043-0.108h0.216c0.144,0,0.36-0.035,1.296-0.18
		c0.216,0,0.864-0.216,1.043-0.216c0.468-0.036,0.576-0.252,1.476-0.36l0.864-0.18c0,0,1.044-0.396,1.332-0.396
		c0.144,0,0.324-0.217,0.612-0.217c-0.072,0,0.468-0.216,1.008-0.432c0.036,0,0.396-0.107,0.792-0.288l1.584-0.647
		c0.396-0.145,0.612-0.36,1.043-0.576c0.504-0.252,2.016-0.936,2.484-1.224c2.34-1.404,3.204-2.34,4.823-3.456
		c0.468-0.432,1.404-0.863,2.124-1.512c0.144-0.144,0.828-0.756,1.044-0.792l0.612-0.432c0.576-0.54,0.648-0.432,1.26-0.828
		c0.108-0.071,0.468-0.252,0.468-0.252l0.396-0.072c0.144-0.071,0.252-0.071,0.36-0.071h0.216c0.18,0,0.324,0.036,0.612,0.432
		c0.036,0.108,0.108,0.432,0.108,0.756v0.145c-0.036,0.252-0.216,0.468-0.972,0.791c-0.036,0-0.972,0.433-1.008,0.469L42.797,18.086
		z"/>
	<path d="M80.307,17.546l-0.72,0.144c-0.18,0.072-0.432,0.145-0.684,0.18l-2.16,0.396c-0.612,0.107-1.152,0.324-1.764,0.324
		c-0.504,0.252-0.72,0.359-2.916,0.791c-0.468,0.072-0.9,0.252-1.152,0.396c-0.144,0.036-0.288,0.072-0.324,0.072
		c-0.288,0.144-0.72,0.396-1.152,0.504c-0.54,0.107-1.044,0.359-1.692,0.432c-0.18,0-0.432,0.252-0.468,0.288
		c-0.18,0.107-0.504,0.288-0.936,0.359c-0.18,0.108-0.432,0.252-0.756,0.324c-0.216,0-0.468,0.252-0.72,0.288
		c-0.324,0.145-0.864,0.36-1.188,0.36c-0.288,0.18-0.324,0.216-0.324,0.216c-0.36,0.216-0.936,0.432-1.728,0.684l-1.512,0.72
		c-1.44,0.721-1.296,0.864-2.052,1.188c-1.224,0.647-1.836,1.296-2.988,1.8c0,0-0.144,0.216-0.648,0.54
		c-1.476,1.008-1.692,0.936-2.52,1.764c-0.252,0.18-0.684,0.468-0.684,0.468c-0.36,0.252-0.756,0.72-2.844,2.159
		c-0.108,0.181-0.612,0.469-1.044,0.864c-0.936,0.647-0.936,0.828-1.583,1.26c-0.612,0.324-0.648,0.396-1.62,1.044
		c-0.252,0-1.008,0.756-1.296,1.044c-0.288,0.252-0.648,0.684-1.044,0.756l-0.756,0.432c-0.036,0-0.792,0.324-1.044,0.468H39.38
		c-0.504,0-1.08-0.035-1.26-0.432l-0.144-0.216c-0.072-0.504-0.144-0.828-0.144-1.188c0-0.685,0.18-1.26,0.396-2.268
		c0.36-0.433,0.432-1.116,0.612-1.836c0.108-0.612,0.324-1.368,0.54-1.908c0.036-0.432,0.288-0.936,0.432-1.403
		c0.144-0.648,0.288-1.548,0.432-1.836c-0.036-0.036,0.324-0.828,0.324-0.864l0.216-1.296c0.108-0.504,0.432-1.8,0.864-2.663
		c0.108-0.181,0.252-0.648,0.252-0.828s0.288-0.864,0.612-1.8c0-0.108,0.468-1.728,0.54-1.908c0.144-0.54,0.324-1.619,0.684-3.203
		c0.036-0.252,0.144-0.972,0.288-1.476s0.396-0.648,0.396-1.225c0-0.396,0.072-0.756,0.216-1.151c0.144-0.468,0.18-1.691,0.252-2.52
		c0,0,0.288-0.648,0.612-1.404c0.648-0.647,0.864-0.72,2.879-0.72c0.648,0,1.908,0.72,1.908,1.512c0,0.324-0.18,1.62-0.324,1.62
		c-0.036,0-0.252,0.647-0.36,1.08l-0.144,0.359c-0.108,0.288-0.252,1.584-0.468,2.052c-0.216,0.36-0.576,0.9-0.576,1.152
		c0,0.071-0.252,0.72-0.396,0.792l0.108-0.036l-0.108,0.18c-0.036,0.252-0.18,0.504-0.216,0.756c0.108-0.108,0.216-0.144,0.216-0.18
		c0.576-0.433,1.224-0.972,1.908-1.656l0.18-0.216c0.648-0.647,1.044-1.044,2.087-1.728c0.648-0.468,0.972-0.648,1.44-1.08
		c0.756-0.647,1.008-0.504,1.368-0.828c0.144-0.144,0.36-0.323,0.612-0.323l1.152-0.504c1.008-0.469,1.944-0.504,3.131-0.504
		c1.584,0,2.592,0.539,2.988,0.972c0.936,0.972,1.116,1.979,1.116,2.699c0,1.836-0.288,1.944-0.288,2.304
		c0,0.036-0.936,2.124-0.936,2.16c0,0.071-1.044,1.403-1.044,1.296c-0.072,0-0.684,0.792-1.152,1.296
		c-0.072,0.071-0.18,0.071-1.332,1.403c-0.18,0.216-0.252,0.36-0.684,0.612c-0.036,0.252-0.864,1.008-1.116,1.224
		c-0.936,0.936-1.152,1.008-1.979,1.836c-0.324,0.323-0.684,0.756-1.152,1.08l0.072,0.287c0.18-0.107,0.36-0.216,0.54-0.252
		c0.108,0,0.396-0.144,0.792-0.359l0.108-0.072l0.216-0.107c0.648-0.36,1.692-0.757,2.34-1.188c0.504-0.288,2.304-0.936,2.988-1.188
		c0.288-0.072,1.044-0.612,1.656-0.648c0.18,0,1.152-0.359,1.152-0.359l0.18-0.108c0.396-0.18,1.08-0.576,1.908-0.792
		c0.072,0,0.324-0.071,0.576-0.216c0.576-0.288,0.936-0.54,1.872-0.684c0.396-0.036,0.9-0.324,1.008-0.396
		c0.36-0.144,0.792-0.144,1.404-0.396l1.404-0.468c0.18-0.181,2.339-0.54,3.599-0.828l2.448-0.54
		c1.332-0.288,2.628-0.792,4.068-1.08l1.332-0.252c0.108-0.036,0.36-0.071,0.36-0.071c0.18,0,0.396,0,0.468,0.216
		c0.144,0.18,0.648,0.107,0.828,0.611c0.036,0.108,0.036,0.216,0.036,0.468c0.072,0.181,0.108,0.324,0.108,0.433
		c0,0.792-0.54,0.936-1.368,0.936c-0.18,0-0.396-0.072-0.648-0.252c-0.288-0.504-0.576-0.792-1.152-0.792
		C81.855,16.897,80.991,17.438,80.307,17.546z M41.216,31.8c0,0.144,0.036,0.288,0.072,0.36l3.383-2.232
		c0.324,0,0.504-0.359,0.756-0.359c0.54-0.396,0.864-0.504,1.296-0.685c0.108,0,1.728-0.899,1.764-1.044
		c0-0.071,0.144-0.252,1.332-1.079l1.404-1.116c0.324-0.324,0.9-0.647,1.26-1.008l1.872-1.872c1.043-0.827,2.268-2.375,3.131-3.384
		c0.468-0.216,2.196-2.556,2.628-3.06c0.216-0.216,0.288-0.684,0.504-0.863c0.036-0.072,0.288-0.576,0.396-0.9
		c0.18-0.468,0.36-0.863,0.36-1.403c0-0.18-0.072-0.792-0.144-1.332c0-0.432-0.936-1.08-1.764-1.08c-0.54,0-0.432,0.036-0.828,0.036
		c-0.252,0-0.792,0.108-1.224,0.288c-0.288,0-0.54,0.216-0.72,0.396c-0.18,0.145-0.684,0.252-0.648,0.252l-2.231,1.44
		c-0.684,0.432-1.152,0.972-1.44,1.26c-0.792,0.864-1.368,1.332-2.16,1.979c-0.288,0.18-0.54,0.432-0.72,0.828
		c-0.144,0.216-0.36,0.36-0.828,1.044c-0.684,1.08-1.692,2.016-2.052,3.132c-0.036,0.107-0.144,0.323-0.216,0.359
		c-0.036,0.252-0.324,0.648-0.648,1.044c-0.612,0.756-0.576,0.9-1.116,1.692l-0.612,0.936c-0.036,0.18-0.288,0.863-0.324,0.863
		c-0.216,0.145-0.216,0.973-0.54,1.044c0,0.072-0.324,0.973-0.612,1.332C42.44,28.848,41.216,31.62,41.216,31.8z"/>
	<path d="M107.128,15.278c0.18,0,0.396,0,0.468,0.216c0.144,0.18,0.648,0.107,0.828,0.611c0.036,0.108,0.036,0.216,0.036,0.468
		c0.072,0.181,0.108,0.324,0.108,0.433c0,0.792-0.576,0.936-1.368,0.936c-0.216,0-0.396-0.072-0.648-0.252
		c-0.072-0.036-0.216-0.107-0.252-0.107c-0.036-0.036-0.072-0.036-0.144-0.036c-0.252,0.107-1.152,0.107-1.296,0.288
		c-0.144,0-1.008,0.359-1.008,0.359c0,0.145-0.576,0.216-1.332,0.576c-0.144,0.036-0.324,0.107-0.468,0.216
		c-0.54,0.18-1.872,0.936-2.052,1.008l-1.512,0.792c0,0-2.016,1.296-2.844,1.836l-0.108,0.072c-0.396,0.18-0.684,0.432-1.008,0.684
		c-0.648,0.576-0.972,0.647-1.404,0.972l-0.936,0.504c-0.108,0.108-1.188,0.756-1.26,0.792l-1.224,0.792
		c-0.756,0.504-0.936,0.72-1.692,1.151c-0.468,0.324,0.072,0.072-1.116,0.685c-0.108,0.071-0.288,0.288-0.396,0.288
		c-0.432,0.359-1.044,0.647-1.512,0.936c-0.396,0.324-0.972,0.576-1.692,0.864c0.072,0.035-0.468,0.359-1.44,0.539
		c-0.36,0.108-1.044,0.145-1.368,0.145c-1.656,0-2.304-0.936-2.448-1.152c-0.18-0.287-0.36-0.611-0.612-1.296
		c-0.18-0.539-0.216-1.008-0.216-2.195c0-0.647,0.036-0.972,0.252-1.764l0.18-0.72c0.144-0.612,0.612-1.944,1.08-2.7
		c0.828-1.512,1.188-2.088,1.656-2.735c0.684-0.936,0.684-0.756,1.008-1.188l0.144-0.108c0.9-0.899,1.872-1.62,2.916-2.195
		c0.36-0.217,0.756-0.396,1.224-0.504c0.072,0,0.612-0.072,0.684-0.072c0.18-0.036,0.36-0.036,0.504-0.036
		c1.044,0,1.62,0.18,2.664,0.864c0.288,0.18,0.648,0.54,0.9,1.008c0.108,0.18,0.144,0.288,0.18,0.468v0.504
		c0,0.864-0.504,1.476-0.972,2.268c-0.252,0.432-1.043,1.116-1.728,1.764c-0.144,0.145-0.54,0.468-0.936,0.72
		c-0.216,0.145-0.684,0.324-0.828,0.396c-0.684,0.359-0.72,0.324-1.368,0.576c-0.36,0.144-1.404,0.539-1.62,0.539
		c-0.108,0-1.836,0.252-1.944,0.324h-0.324c-0.036,0-0.072,0-0.108,0.108c-0.252,0.468-0.504,1.115-0.684,1.548
		c-0.108,0.216-0.144,0.359-0.288,0.72c-0.072,0.18-0.144,0.432-0.144,0.684v0.54c0,0,0.072,0.396,0.216,0.576
		c0.36,0.54,0.756,0.54,1.188,0.54c1.296,0,2.484-0.36,3.708-0.972c0.324-0.217,1.404-0.612,1.476-0.612l0.864-0.432
		c0.288-0.181,0.54-0.396,1.98-1.08c0.144-0.108,0.792-0.432,0.972-0.54c0.54-0.288,1.656-1.044,2.16-1.332
		c1.62-0.899,2.772-1.836,3.563-2.195c1.98-1.332,1.872-1.152,2.592-1.692c0,0,2.052-1.115,1.98-1.115
		c0-0.036,0.288-0.145,1.62-0.792l1.512-0.54l0.396-0.108c1.44-0.684,1.476-0.684,1.584-0.684s0.288-0.216,0.36-0.216
		c0.108,0,0.288-0.072,0.288-0.108c0-0.18,0.36-0.359,0.432-0.468C107.092,15.278,107.128,15.278,107.128,15.278z M87.691,17.186
		c-0.036,0-0.324-0.036-0.324-0.036c-0.468,0.072-0.828,0.288-1.26,0.468c-0.108,0.036-0.684,0.469-1.08,0.756
		c-0.288,0.217-0.72,0.576-1.043,0.937l-0.648,0.576c0,0-0.432,0.359-0.468,0.396c-0.288,0.36-0.504,0.54-0.72,0.828
		c-0.288,0.359-0.54,0.575-0.756,1.151c0.144-0.036,0.576-0.036,0.576-0.036c0.504-0.071,1.008-0.107,1.008-0.107
		c0.144,0,0.684-0.145,0.828-0.18l0.9-0.324c0.036-0.036,0.756-0.468,0.756-0.504c0.144-0.036,0.648-0.433,0.72-0.504l1.152-1.116
		c0.144-0.144,0.324-0.432,0.684-0.828c0.18-0.216,0.36-0.54,0.432-0.827C88.447,17.33,88.195,17.258,87.691,17.186z"/>
	<path d="M130.852,16.142c0.037-0.072,0.576-0.288,0.576-0.504c0.541-0.359,0.576-0.359,0.576-0.359c0.181,0,0.396,0,0.468,0.216
		c0.145,0.18,0.648,0.107,0.828,0.611c0.036,0.108,0.036,0.216,0.036,0.468c0.072,0.181,0.108,0.324,0.108,0.433
		c0,0.792-0.576,0.936-1.368,0.936c-0.216,0-0.396-0.072-0.648-0.252c-0.252-0.107-0.18-0.359-0.359-0.359
		c-0.504,0-2.195,0.071-2.699,0.323c-0.072,0.036-0.324,0.072-1.045,0.396l-0.647,0.144c-0.18,0.036-0.468,0.288-0.864,0.288
		c-0.035,0-0.072,0-0.287,0.108c-0.648,0.216-0.612,0.252-1.944,0.827l-0.972,0.36c0,0.036-0.18,0.144-0.792,0.396
		c-0.324,0.072-0.72,0.217-0.936,0.36l-0.756,0.36c-0.612,0.144-1.296,0.396-1.979,0.611l-0.828,0.36
		c-0.144,0.107-0.432,0.216-0.972,0.324l-2.34,1.188l-0.504,0.324c-0.252,0.144-0.54,0.18-0.54,0.323
		c0,0.108-0.864,0.36-1.116,0.648l0.18,1.08c0.072,0.287,0.072,0.539,0.072,0.863c0,0.937-0.072,1.44-0.252,2.016
		c0,0.072-0.072,0.145-0.072,0.252l-0.216,0.433c-0.324,0.504-0.144,0.432-0.756,1.224c0,0,0,0.072-0.324,0.396
		c-0.324,0.181-0.612,0.54-1.296,1.188c-0.18,0.144-0.18,0.071-0.396,0.288l-0.576,0.504c-0.756,0.359-0.936,0.647-1.188,0.684
		l-1.224,0.647c-0.648,0.288-2.16,0.648-2.844,0.648l-0.432,0.036c-0.324,0-0.396-0.036-0.612-0.072
		c-0.504-0.072-1.044-0.108-1.224-0.288l-0.18-0.144c-0.468-0.216-0.612-0.648-0.648-1.008v-0.181c0-0.036,0.036-0.107,0.036-0.216
		c0-1.332,2.304-3.527,2.808-3.995c0.072-0.036,1.116-0.792,1.332-1.044c0.072-0.072,0.9-0.648,1.404-0.9
		c0.252-0.144,0.828-0.539,1.332-0.936c0.18-0.18,0.108-0.216,0.72-0.54l0.252-0.252c-0.072-0.18-0.072-2.088-0.18-2.52
		l-0.252-0.936l-0.072-0.469c-0.144-0.396-0.36-0.827-0.54-1.26l-0.108-0.323c-0.108-0.36-0.144-0.469-0.18-0.504
		c-0.216-0.54-0.468-1.008-0.468-1.62c0-0.108,0.072-0.72,0.108-0.972c0.036-0.288,0.18-0.72,0.18-0.792
		c0.18-0.684,0.324-0.828,1.692-1.979c0.612-0.433,0.54-0.504,1.152-0.864c0.108,0,0.72-0.18,0.792-0.324l1.188-0.432
		c0.144-0.072,1.008-0.288,1.188-0.36c0.288,0,0.36-0.036,0.576-0.036h0.72c0.252,0.181,0.288,0.072,0.576,0.36l0.252,0.36v0.504
		c0,0.071,0.036,0.144,0.036,0.18c0,0.108-0.036,0.216-0.072,0.324c0,0-0.108,0-0.324,0.432c-0.036,0.072-0.324,0.288-0.72,0.396
		l-1.224,0.576l-0.396,0.252c-0.072,0.072-0.432,0.252-0.612,0.36l-0.432,0.359c0,0-0.18,0.108-0.36,0.181l-0.216,0.359
		c0,0.036-0.036,0.072-0.036,0.108c0,0.18-0.072,0.432-0.072,0.756l0.072,0.324c0.288,1.548,0.468,1.476,1.044,3.635l0.108,0.54
		l0.036,0.36l0.288,0.684c0.684-0.396,1.548-0.647,1.548-0.647c0.036-0.072,0.252-0.18,1.152-0.468
		c0.396-0.145,0.612-0.433,2.916-1.188c0,0,1.908-0.756,2.052-0.827c0.576-0.36,1.44-0.612,2.52-0.973l1.368-0.468l0.792-0.396
		c0.36-0.181,0.684-0.36,1.044-0.396c0.144-0.036,1.188-0.359,1.729-0.468c0.359-0.144,1.223-0.396,1.188-0.396l0.359-0.108
		c0,0,0.792-0.072,1.764-0.324L130.852,16.142z M103.028,33.239c1.116-0.323,1.224-0.468,2.268-1.115
		c0.18-0.145,0.648-0.685,1.116-1.296c0.432-0.54,0.468-1.152,0.756-1.728l0.144-0.685c0-0.107,0-0.18,0.036-0.288
		c0-0.107,0.036-0.288,0.036-0.432c0-0.18,0-0.36,0.036-0.468l-0.504,0.396c-0.216,0.216-0.54,0.324-1.224,0.72
		c-0.54,0.324-0.828,0.648-1.44,1.188c-0.396,0.324-1.08,0.684-1.764,1.872c-0.036,0.071-0.216,0.287-0.252,0.396
		c-0.108,0.108-0.324,0.324-0.396,0.647c-0.108,0.145-0.144,0.324-0.144,0.469c0,0.287,0.18,0.539,0.54,0.539
		c0.072,0,0.144-0.035,0.18-0.035L103.028,33.239z"/>
	<path d="M138.378,25.249c0.54-0.433,1.26-1.116,1.836-1.477l1.764-1.115c0.108,0,0.396-0.288,0.504-0.36
		c1.224-0.792,3.527-2.195,3.96-2.411l1.26-0.612c0.035,0,1.26-0.648,1.296-0.648c0,0,0.936-0.539,0.972-0.575
		c0.216-0.145,0.936-0.396,1.008-0.433l2.088-1.079c0.107-0.036-0.145,0.035,0.72-0.288c0.396-0.181,1.296-0.72,1.655-0.72
		c0.252,0,0.469-0.252,0.721-0.252c0.071,0,0.144,0,0.144-0.036c0.108-0.036,0.144-0.072,0.288-0.072
		c0.396,0,0.72,0.324,1.115,0.324c0,0.036,0.072,0.107,0.072,0.18c0.036,0.072,0.072,0.252,0.072,0.252
		c0,0.288,0.036,0.54,0.036,0.72c0,0.36-0.108,0.612-0.756,0.9c-0.072,0-1.008-0.072-1.332-0.072c-0.216,0-0.36,0-0.36-0.072
		c0-0.036-0.071-0.036-0.18-0.036c-0.36,0-1.26,0.181-1.512,0.181c-0.18,0.071-0.648,0.216-0.684,0.216
		c-0.396,0.359-0.792,0.396-1.692,0.899l-0.468,0.288c-0.107,0.036-0.288,0.108-0.252,0.145c0,0.035,0,0.071-0.108,0.107
		c-0.035,0-0.936,0.468-0.936,0.468c-0.324,0.145-0.611,0.145-1.116,0.576c-0.071,0.072-0.756,0.432-0.791,0.432
		c-0.612,0.252-1.116,0.396-1.692,0.792c0.072,0-1.008,0.504-1.512,0.9c-0.18,0.072-1.116,0.576-1.08,0.576
		c-0.144,0.107-0.899,0.72-1.439,0.972l-0.504,0.288l-1.188,0.972c-0.36,0.144-1.044,0.792-1.188,1.008
		c0.036-0.072-0.792,0.432-1.728,1.224c-0.432,0.432-0.756,0.72-1.26,1.008c-0.324,0.216-0.684,0.72-0.792,0.72
		c-1.152,0.756-1.548,1.116-2.268,1.368c-0.288,0.072-0.576,0.108-0.864,0.108c-0.36,0-0.72-0.072-1.008-0.252
		c-0.288-0.181-0.684-0.469-0.864-0.828c-0.252-0.54-0.539-0.685-0.611-1.62c-0.107-0.144-0.216-0.647-0.216-1.188
		c0-0.108,0.036-0.216,0.036-0.36c0.035-1.044,0.072-1.871,0.216-2.951l0.216-1.512c0-0.108,0.072-0.217,0.072-0.433
		c0.035-0.252,0.072-0.972,0.216-1.188c0-0.36,0.036-0.54,0.18-1.152c0.036-0.107,0.072-1.367,0.72-3.095
		c0.145-0.685,0.864-0.9,1.368-0.9c0.18,0,1.08,0.072,1.224,0.18c0,0.036,0.504,0.324,0.54,0.36c0.288,0.36,0.288,0.432,0.54,1.08
		c0.072,0.144,0.108,0.863,0.144,0.972c0,0.864-0.216,1.188-0.575,2.088c-0.217,0.54-0.504,1.008-0.612,1.512
		c0,0.072-0.18,0.54-0.18,0.72l-0.36,1.296c0,0.18-0.216,0.828-0.288,1.044c-0.216,0.792-0.252,1.584-0.252,2.412
		c0,0.647,0.181,1.079,0.685,1.115h0.432c0.216,0,0.647-0.072,1.403-0.576c-0.144,0,1.008-0.575,1.225-0.72
		C136.687,26.4,137.91,25.608,138.378,25.249z M133.158,10.742c-0.396-0.54-0.72-0.611-0.72-1.403c0-0.252,0.324-0.54,0.36-0.685
		c0.107,0,0.432-0.432,0.468-0.468c0.756-0.359,1.656-0.359,1.908-0.359c0.18,0,0.72,0.54,0.72,0.647
		c0-0.036,0.107,0.18,0.288,0.504l0.287,0.576c0,0.107,0.181,0.54,0.181,0.647c-0.036,0.36-0.181,0.504-0.504,1.008
		c-0.108,0.181-0.576,0.54-1.116,0.612c-0.288,0-0.828-0.216-1.224-0.54C133.41,10.958,133.303,10.958,133.158,10.742z"/>
	<path d="M179.127,19.237c-0.144,0-0.252,0.144-0.396,0.216c-0.216,0.108-0.216,0.036-0.684,0.252c-1.8,0.685-2.484,1.44-4.68,2.771
		c-1.476,0.9-2.628,1.764-3.384,2.269l-0.108,0.035c-0.035,0.072-0.071,0.217-0.252,0.217c-0.107,0-0.468,0.071-0.863,0.647
		c-0.468,0.612-2.052,1.943-2.988,2.628l-0.539,0.396l-0.685,0.792l-0.216,0.18c-0.107,0.181-0.144,0.217-0.216,0.217h-0.144
		l-0.396,0.396c-0.216,0.36-0.54,0.72-0.792,0.756c-0.216,0.504-0.432,0.828-0.756,1.044l-0.396,2.052l-0.469,1.62v0.144
		c0,0.108,0,0.216-0.035,0.324c0,0.036-0.036,0.072-0.036,0.107c-0.181,0.252-0.216,0.504-0.288,1.188
		c-0.145,0.144-0.36,1.115-0.36,1.188c0,0.145-0.144,0.504-0.288,0.648c-0.144,0.252-0.107,0.468-0.18,0.72
		c-0.504,1.836-0.972,3.239-0.972,3.455c-0.072,0-0.648,1.764-0.684,2.124l-0.252,0.684c-0.145,0.145-0.181,0.468-0.181,0.468
		c0,0.36-0.216,0.828-0.359,1.225c-0.216,0.396-0.324,1.044-0.612,1.296c0,0-0.036,0.107-0.036,0.216
		c-0.216,0.576-0.756,1.584-0.863,2.123c-0.36,1.044-0.648,1.548-1.656,3.096c0,0.145-0.684,0.756-1.979,0.973
		c-0.18,0.035-0.396,0.035-0.576,0.035c-1.044,0-2.052-0.791-2.556-1.871l-0.576-1.26c0-0.072-0.144-0.612-0.144-0.576
		c-0.036,0-0.072-0.684-0.108-0.828c-0.036-0.252-0.071-0.54-0.071-0.792c0-0.144,0-0.323,0.035-0.468
		c0.469-2.808,3.096-6.839,4.176-8.027l1.188-1.331c0.072,0,0.685-0.612,0.685-0.685c0,0,1.115-1.26,1.655-1.907
		c0.072-0.145,0.54-0.864,0.828-1.08c0.396-0.288,0.252-0.288,0.9-0.792c0.144-0.107,0.504-1.116,0.827-1.224l0.685-1.62v0.18
		c0,0,0.036-0.18,0.107-0.863c0-0.324,0.181-0.576,0.36-1.836c0.144-0.432,0.216-1.188,0.216-1.691
		c0.324-1.584,0.36-2.34,0.36-2.736v-0.396c0-0.216,0.035-0.432,0.071-0.648c0-0.936,0.108-1.188,0.108-2.627
		c0-0.72,0.144-1.404,0.18-2.196l0.072-0.972l-0.36,0.144c-0.107,0-0.359,0.288-0.468,0.288c-0.54,0.217-0.288,0.217-1.08,0.792
		l-1.655,1.692c-0.396,0.611-0.937,1.044-1.008,1.188l-0.36,0.468l-0.359,0.36c-0.756,1.115-0.648,0.863-2.269,2.915l-0.107,0.181
		c-0.54,0.827-1.62,1.619-2.412,2.159c-0.144,0.108-0.144,0.145-0.18,0.145c-0.216,0.107-1.008,0.504-1.8,0.504
		s-1.943-0.828-1.943-1.404c0-0.144-0.145,0.036-0.145-0.396c-0.252-0.145-0.288-0.648-0.288-0.972v-0.288
		c0.36-1.764,0.433-1.332,0.864-2.304c-0.108,0.071,0.576-1.044,0.612-1.116c0-0.072,0.647-1.08,1.151-1.691
		c0.036-0.072,0.576-0.828,0.647-0.864c0.108-0.108,0.36-0.612,1.404-1.691c0.396-0.36,0.72-0.756,1.224-1.332
		c0.36-0.18,0.828-0.864,1.08-1.008c0.036,0,0.36-0.252,0.612-0.468l0.756-0.612l1.296-0.828c0.972-0.54,2.483-0.899,2.771-0.899
		c0.432,0,0.828-0.288,2.123-0.324c0,0,0.721-0.072,0.828-0.072c0,0,0.145,0,1.476,0.324c0.792,0.324,1.656,1.368,1.836,2.231
		c0,0.468,0.072,0.721,0.072,1.08c0,0.972-0.36,1.908-0.36,2.916s-0.252,2.088-0.539,3.348c-0.181,0.611-0.612,1.943-0.792,2.735
		c-0.145,0.756-0.108,0.864-0.396,1.548c0,0.359,0,0.504-0.107,0.756l0.359-0.504c0.216-0.216,0.612-0.576,0.792-0.648
		c0,0,0.036,0,0.108-0.035c0.036-0.072,0.107-0.181,0.18-0.217c0.216-0.18,0.36-0.359,0.432-0.396l0.576-0.468
		c0.144-0.252,0.648-0.792,0.9-0.792c0.035,0,0.035-0.036,0.18-0.145l0.144-0.071c0,0,0.036-0.072,0.036-0.181
		c1.728-1.403,1.872-1.403,1.872-1.476c0.288-0.036,1.728-1.548,2.52-1.907l0.792-0.54c0.611-0.181,2.268-1.548,4.463-2.592
		c0.036,0,2.376-1.26,2.412-1.26c0,0,1.044-0.468,1.044-0.432c0.144-0.036,0.828-0.54,1.08-0.54l0.288-0.145
		c0.035-0.072,0.432-0.324,0.936-0.396c0.252-0.072,0.756-0.396,0.756-0.396c0.576-0.252,1.008-0.54,1.62-0.575h0.252
		c0.144,0,0.396,0,0.432,0.216c0.18,0.18,0.647,0.107,0.864,0.611c0.035,0.108,0.035,0.216,0.035,0.468
		c0.036,0.181,0.072,0.324,0.072,0.433c0,0.792-0.54,0.936-1.332,0.936c-0.035-0.144-1.26-0.18-1.476-0.252
		c-0.144,0.072-0.792,0.252-0.828,0.252c-0.252,0.108-1.548,0.576-1.8,0.576c-0.071,0-0.144,0-0.107,0.036
		c0,0-0.108,0.071-0.576,0.216C179.775,18.77,179.271,19.237,179.127,19.237z M154.254,19.453c-0.18,0.036-0.936,0.468-2.087,1.692
		c0.107-0.072-0.792,0.863-1.44,1.512c-0.216,0.071-0.54,0.504-0.792,0.863c-0.107,0.145-0.432,0.181-0.792,0.937l-0.359,0.504
		c0,0.323-0.288,0.575-0.324,0.684c-0.144,0.36-0.18,0.432-0.324,0.647l-0.071,0.505c0,0.071,0.107,0.468,0.18,0.468
		c0.108,0,0.324,0.036,0.36,0.036c0.035,0,0.107,0.035,0.18,0.035c0.18,0,0.504-0.071,0.936-0.359c0.072,0,0.828-0.648,0.972-0.612
		c0.324-0.432,1.368-1.115,2.412-2.231l5.867-5.256c0.288-0.035,0.756-0.827,0.9-0.936c-0.072,0-0.108-0.18-0.252-0.18
		c-0.145,0-0.288-0.036-0.469-0.108c-0.071,0-0.323,0.072-0.647,0.072c-0.252,0-0.54,0.108-1.188,0.288l-1.009,0.288
		c-0.071,0.036-0.396,0.323-0.972,0.54L154.254,19.453z M151.159,53.073c0,0.252,0.684,0.756,1.188,0.756
		c0.18,0,0.36-0.072,0.432-0.324c0,0,0.108-0.107,0.252-0.324l0.468-0.756l0.469-1.008c0.107-0.252,0.287-0.684,0.396-1.151
		c0.036-0.036,0.108-0.18,0.108-0.288l0.107-0.216c0.36-1.116,0.685-1.548,1.08-2.808c0.108-0.252,0.288-0.972,0.288-1.26
		c0-0.108,0.216-0.576,0.288-0.756c0-0.288,0.144-0.433,0.252-0.792l0.252-0.864l0.18-1.188l0.288-0.792
		c0.072-0.18,0.216-0.36,0.252-0.756l0.288-0.864c0.107-0.324,0.216-0.756,0.216-1.115l0.288-1.261
		c-0.145,0.108-0.396,0.469-0.504,0.685c0,0-0.216,0.252-0.324,0.324c-0.288,0.287-0.899,1.26-1.296,1.512l-2.376,3.239
		c-0.071,0.072-0.18,0.216-0.432,0.396l-0.828,1.44c-0.071,0.072-0.216,0.18-0.216,0.324c-0.071,0.035-0.144,0.107-0.144,0.287
		c0,0.217-0.324,0.433-0.324,0.721c-0.216,0.18-0.54,0.863-0.72,1.439c-0.252,0.899-0.468,0.756-0.612,1.691
		c0,0.072-0.036,0.612-0.036,0.9v0.611c0,0.469,0.036,0.685,0.252,1.332C150.727,52.425,151.159,53.037,151.159,53.073z"/>
	<path d="M216.241,19.346c-0.647,0.252-2.268,1.439-2.52,1.439l-1.836,1.116c0,0-3.599,2.411-3.599,2.447
		c-0.145,0-3.888,3.096-4.068,3.239c-1.296,1.008-0.18,0.396-3.6,2.736c-0.252,0.107-0.396,0.144-0.611,0.144
		c-1.116,0-2.556-1.008-2.735-3.491c-0.036-0.36-0.108-1.476-0.108-1.62c0-0.144,0.108-1.655,0.108-1.872
		c0-0.287-0.181-1.691-0.252-2.411c-0.036-0.288-0.469-0.576-0.721-0.576c-0.54,0-1.619,0.396-3.348,1.908
		c-0.252,0.323-0.539,0.504-1.26,1.224c-0.792,0.792-0.827,0.756-0.899,0.899c-0.864,0.9-1.116,1.225-1.548,1.836
		c-0.504,0.648-0.612,0.685-1.332,1.728c-0.288,0.433-0.647,0.828-0.864,1.368c-0.539,0.54-0.899,1.296-1.583,2.016
		c-0.721,0.828-1.62,1.656-2.376,1.656c-0.648,0-1.62-0.792-2.016-1.26c-0.216-0.252-0.252-0.36-0.36-0.828l0.072-0.684
		c0-0.145,0.18-1.296,0.18-1.404l0.324-1.296c0.612-1.764,1.08-2.52,1.224-3.384c0.288-1.26,0.864-2.411,0.864-3.852
		c0-0.359-0.036-0.756-0.072-1.26l-0.107-1.079c-0.252-0.288-0.036-0.288-0.36-0.648c-0.145-0.107-0.18-0.216-0.18-0.252
		c0-0.072,0.035-0.108,0.035-0.18c0-0.108,0.181-0.181,0.181-0.288c0.107-0.432,0.576-0.54,0.611-0.684
		c0.648-0.648,1.044-0.9,1.692-0.9c2.34,0.216,2.34,1.296,2.34,2.412c0,0.468-0.145,0.684-0.181,1.115
		c-0.071,0.685-0.288,1.368-0.432,2.304l-0.36,2.16c-0.18,1.188-0.18,0.756-0.323,1.979c-0.072,0.684-0.396,1.26-0.468,1.979
		c0.287,0.036,1.835-1.583,2.231-2.016l4.392-4.571c1.512-1.548,2.304-2.052,3.707-3.06c0.828-0.576,1.476-0.647,2.556-0.647
		c1.188,0,2.016,1.476,2.016,3.959c0,0.72-0.071,0.756-0.071,1.116c0,0.54-0.036,1.728-0.181,2.987
		c0.072,0.936,1.332,1.692,2.052,1.692c0.36,0,0.864-0.217,1.08-0.324c0.468-0.396,1.116-0.576,2.268-1.404l5.184-3.707l1.584-0.937
		l0.756-0.54c0,0,0.576-0.287,0.54-0.287c0-0.036,0.18-0.252,1.548-0.937l1.943-0.972l1.152-0.72c0.035,0,0.144,0,0.144-0.036
		c0.108,0,0.288-0.252,0.288-0.252s0.18-0.036,0.252-0.144l0.18-0.145c0.036-0.036,0-0.144,0.072-0.216s0.252-0.072,0.252-0.288
		c0.54-0.359,0.576-0.359,0.576-0.359c0.144,0,0.396,0,0.432,0.216c0.18,0.18,0.647,0.107,0.864,0.611
		c0.035,0.108,0.035,0.216,0.035,0.468c0.072,0.181,0.072,0.324,0.072,0.433c0,0.792-0.54,0.936-1.332,0.936
		c-0.216,0-0.396-0.072-0.647-0.252c-0.072-0.036-0.145-0.036-0.18-0.036c-0.108,0-0.145,0.072-0.288,0.072
		c-0.216,0.108-0.792,0.18-0.864,0.432c-0.144,0-0.324,0.108-0.288,0.108c0,0.036-0.252,0.18-0.756,0.468L216.241,19.346z"/>
	<path d="M226.397,12.542c0.107,0,0.504-0.18,0.972-0.18h0.864c0.396,0,0.432-0.036,1.079-0.036h0.433
		c0.288,0,0.468,0.036,0.756,0.036h1.439c0,0,0.433,0.036,0.504,0.036c0.216,0,0.433,0.107,0.576,0.107l0.612,0.288l0.611,0.145
		c0.433,0.216,1.08,0.54,1.476,0.863c1.513,1.152,2.304,2.664,2.304,4.464v0.324c-0.107,1.439-0.216,2.339-0.791,3.491
		c-0.036,0.072-0.181,0.756-0.181,0.756c-0.071,0.144-0.252,0.864-0.323,0.936l-0.145,0.216c-0.072,0.072-0.54,1.152-0.647,1.296
		l-0.36,0.469c0,0-0.036,0.216-0.108,0.323l-0.107,0.576l-0.432,0.612l-0.108,0.396l-0.396,0.504l-0.071,0.288l-0.072,0.108
		c-0.036,0.035-0.216,0.071-0.324,0.071c-0.071,0-0.144,0-0.18-0.036c-0.144-0.107-0.18-0.252-0.18-0.359
		c0-0.252,0.107-0.432,0.18-0.576l0.54-0.72c0.072-0.072,0.18-0.648,0.252-0.684l0.324-0.469c0.144-0.468,0.288-1.295,0.468-1.764
		l0.432-0.756c0.072-0.107,0.216-0.575,0.288-0.647c0.036-0.324,0.072-0.504,0.144-0.792l0.181-0.828l0.18-1.188
		c0.036-0.072,0.036-0.216,0.036-0.36v-0.324c0-0.216,0-0.396-0.072-0.539c0-0.469-0.216-0.756-0.647-1.188
		c-0.972-0.792-1.116-0.899-2.268-1.151c-0.252-0.036-0.756-0.288-1.044-0.324l-0.648-0.072c0,0-0.396-0.144-0.504-0.144
		c-0.144,0-0.396-0.108-0.54-0.108c-0.107,0-0.468,0.036-0.72,0.036c-0.107,0-0.252,0-0.288-0.036
		c-0.072-0.071-0.144-0.107-0.252-0.107c-0.144,0-0.288,0.036-0.54,0.071c-0.071,0-0.144,0-0.288,0.036l-0.611,0.108h-0.216
		c-0.036-0.036-0.108-0.036-0.181-0.036c-0.216,0-0.323,0.072-0.359,0.072h-0.288c-0.036-0.036-0.108-0.036-0.18-0.036l-0.469,0.072
		c-0.071,0-0.432,0.144-0.468,0.144c-0.144,0-0.288,0.144-0.54,0.144c-0.18,0.036-0.504,0.181-0.792,0.288
		c-0.071,0.036-0.107,0.036-0.144,0.036c-0.108,0-0.216-0.036-0.324-0.036c-0.396,0.216-0.756,0.396-1.008,0.396
		c-0.107,0-0.288,0.071-0.396,0.071c-0.145,0-0.216-0.035-0.36-0.18c-0.072-0.072-0.54-0.684-0.54-0.72v-0.54
		c0-0.18,0-0.432,0.288-0.828c0.504-0.756,1.404-1.188,2.16-1.439C224.67,13.01,226.361,12.542,226.397,12.542z M223.518,40.871
		c0,0.323,0.145,0.647,0.145,0.972c0,0.18-0.036,0.323-0.108,0.468c-0.396-0.324-0.647-1.08-0.647-1.728
		c0-0.36,0.035-0.685,0.216-0.9l0.071-0.252c0.252-0.18,0.576-0.252,0.721-0.468l0.107-0.036l0.145,0.072
		c0.071,0.072,0.071,0.252,0.071,0.359c0,0.252-0.071,0.54-0.18,0.685c-0.144,0.216-0.252,0.18-0.396,0.324
		C223.554,40.547,223.518,40.69,223.518,40.871z M227.333,36.839c0.396,0,0.396,0.468,0.54,0.612
		c-0.252,1.008-0.756,0.972-0.756,0.972c-0.108,0.108-0.18,0.18-0.216,0.18c-0.072,0-0.108-0.18-0.36-0.252l-0.252-0.18l0.216-0.468
		l0.036-0.324l0.181-0.18l0.144-0.216C227.081,36.875,227.226,36.839,227.333,36.839z M229.205,34.535
		c0.216,0,0.432,0.181,0.647,0.324c0,0.036-0.144,1.008-0.863,1.008c-0.216,0-0.252-0.432-0.252-0.756c0-0.18,0-0.324,0.036-0.396
		C228.917,34.607,229.097,34.535,229.205,34.535z M233.74,29.856c0,0.035,0,0.071-0.036,0.107l-0.252,0.108
		c-0.396,1.044-1.008,1.907-1.907,2.52c-0.145,0.107-0.181,0.18-0.36,0.18c-0.107,0-0.216,0-0.359-0.107
		c0.684-0.9,0.899-1.836,1.512-2.592l0.54-0.72c0.107-0.072,0.18-0.108,0.287-0.108c0.145,0,0.324,0.072,0.469,0.18
		C233.668,29.496,233.74,29.712,233.74,29.856z"/>
</g>
</svg>
