<?xml version="1.0" encoding="utf-8"?>
<!-- Generator: Adobe Illustrator 15.1.0, SVG Export Plug-In . SVG Version: 6.00 Build 0)  -->
<!DOCTYPE svg PUBLIC "-//W3C//DTD SVG 1.1//EN" "http://www.w3.org/Graphics/SVG/1.1/DTD/svg11.dtd">
<svg version="1.1" id="Layer_1" xmlns="http://www.w3.org/2000/svg" xmlns:xlink="http://www.w3.org/1999/xlink" x="0px" y="0px"
	 width="144px" height="144px" viewBox="0 0 144 144" enable-background="new 0 0 144 144" xml:space="preserve">
<g id="Layer_1_1_" display="none">
	<path display="inline" d="M71.8,20.319c-28.581,0-51.753,23.172-51.753,51.753c0,28.587,23.172,51.752,51.753,51.752
		c28.583,0,51.752-23.165,51.752-51.752C123.553,43.491,100.384,20.319,71.8,20.319z M82.889,72.091h-7.252
		c0,11.585,0,25.857,0,25.857H64.889c0,0,0-14.126,0-25.857h-5.11v-9.135h5.11v-5.914c0-4.232,2.01-10.847,10.845-10.847
		l7.959,0.032v8.87c0,0-4.84,0-5.776,0c-0.94,0-2.28,0.468-2.28,2.488v5.371h8.194L82.889,72.091z"/>
</g>
<g id="Layer_4" display="none">
	<path display="inline" d="M71.433,20.319c-28.401,0-51.43,23.027-51.43,51.429c0,28.406,23.028,51.428,51.43,51.428
		c28.401,0,51.428-23.021,51.428-51.428C122.861,43.346,99.834,20.319,71.433,20.319z M76.744,83.197
		c-3.189,0-6.192-1.721-7.217-3.678c0,0-1.717,6.805-2.078,8.116c-1.28,4.646-5.044,9.291-5.332,9.666
		c-0.206,0.267-0.656,0.185-0.703-0.166c-0.083-0.592-1.042-6.45,0.087-11.227c0.568-2.396,3.801-16.098,3.801-16.098
		s-0.944-1.883-0.944-4.67c0-4.381,2.539-7.645,5.7-7.645c2.688,0,3.98,2.013,3.98,4.431c0,2.699-1.716,6.742-2.604,10.483
		C70.692,75.543,73,78.1,76.094,78.1c5.596,0,9.367-7.187,9.367-15.706c0-6.475-4.361-11.32-12.293-11.32
		c-8.958,0-14.542,6.686-14.542,14.151c0,2.574,0.76,4.388,1.949,5.788c0.547,0.646,0.622,0.908,0.424,1.65
		c-0.145,0.54-0.465,1.853-0.603,2.368c-0.194,0.752-0.804,1.016-1.479,0.738c-4.127-1.681-6.05-6.204-6.05-11.289
		c0-8.387,7.075-18.449,21.113-18.449c11.278,0,18.703,8.162,18.703,16.925C92.684,74.541,86.24,83.197,76.744,83.197z"/>
</g>
<g id="Layer_2" display="none">
	<path display="inline" d="M71.432,21.373c-28.401,0-51.429,23.027-51.429,51.43c0,28.407,23.027,51.428,51.429,51.428
		c28.402,0,51.429-23.021,51.429-51.428C122.859,44.4,99.833,21.373,71.432,21.373z M91.882,62.317
		c0.022,0.451,0.032,0.904,0.032,1.362c0,13.944-10.613,30.021-30.021,30.021c-5.961,0-11.505-1.746-16.176-4.74
		c0.829,0.095,1.668,0.146,2.518,0.146c4.947,0,9.492-1.684,13.102-4.515c-4.613-0.089-8.512-3.139-9.853-7.325
		c0.644,0.118,1.303,0.188,1.984,0.188c0.963,0,1.896-0.133,2.777-0.371c-4.82-0.973-8.462-5.236-8.462-10.346
		c0-0.044,0-0.089,0-0.132c1.425,0.791,3.05,1.262,4.78,1.318c-2.832-1.89-4.692-5.123-4.692-8.783c0-1.934,0.521-3.748,1.427-5.305
		C54.5,60.221,62.278,64.42,71.046,64.86c-0.18-0.773-0.273-1.576-0.273-2.405c0-5.826,4.724-10.547,10.554-10.547
		c3.03,0,5.774,1.281,7.698,3.327c2.401-0.47,4.662-1.35,6.703-2.562c-0.791,2.468-2.461,4.533-4.641,5.839
		c2.135-0.251,4.169-0.822,6.059-1.657C95.732,58.971,93.943,60.829,91.882,62.317z"/>
</g>
<path fill-rule="evenodd" clip-rule="evenodd" fill="#E2711D" d="M71.208,20.823c-28.633,0-51.852,23.216-51.852,51.859
	c0,22.908,14.856,42.344,35.464,49.201c2.592,0.477,3.539-1.125,3.539-2.499c0-1.23-0.045-4.491-0.07-8.819
	c-14.425,3.133-17.468-6.951-17.468-6.951c-2.358-5.99-5.757-7.585-5.757-7.585c-4.708-3.218,0.356-3.152,0.356-3.152
	c5.204,0.366,7.942,5.344,7.942,5.344c4.626,7.924,12.137,5.636,15.091,4.309c0.471-3.352,1.811-5.637,3.292-6.933
	c-11.515-1.309-23.62-5.757-23.62-25.628c0-5.661,2.021-10.29,5.338-13.915c-0.533-1.312-2.313-6.584,0.508-13.723
	c0,0,4.354-1.395,14.26,5.315c4.136-1.15,8.573-1.725,12.982-1.746c4.404,0.021,8.839,0.596,12.984,1.746
	c9.897-6.71,14.244-5.315,14.244-5.315c2.829,7.139,1.051,12.411,0.516,13.723c3.323,3.625,5.328,8.253,5.328,13.915
	c0,19.92-12.123,24.304-23.676,25.588c1.865,1.602,3.522,4.766,3.522,9.603c0,6.933-0.064,12.525-0.064,14.226
	c0,1.387,0.936,3,3.567,2.493c20.586-6.87,35.432-26.293,35.432-49.195C123.067,44.039,99.848,20.823,71.208,20.823z"/>
</svg>
