<?xml version="1.0" encoding="utf-8"?>
<!-- Generator: Adobe Illustrator 15.1.0, SVG Export Plug-In . SVG Version: 6.00 Build 0)  -->
<!DOCTYPE svg PUBLIC "-//W3C//DTD SVG 1.1//EN" "http://www.w3.org/Graphics/SVG/1.1/DTD/svg11.dtd">
<svg version="1.1" id="Layer_1" xmlns="http://www.w3.org/2000/svg" xmlns:xlink="http://www.w3.org/1999/xlink" x="0px" y="0px"
	 width="144px" height="144px" viewBox="0 0 144 144" enable-background="new 0 0 144 144" xml:space="preserve">
<g>
	<path fill="#E2711D" d="M62.724,68.324c0.833-0.527,1.252-1.442,1.252-2.756c0-1.464-0.555-2.417-1.66-2.891
		c-0.954-0.326-2.176-0.486-3.66-0.486h-6.734v6.901h7.522C60.787,69.092,61.877,68.835,62.724,68.324z"/>
	<path fill="#E2711D" d="M85.756,69.287c-1.536,0-2.729,0.448-3.574,1.32c-0.848,0.885-1.374,2.076-1.594,3.594h10.311
		c-0.106-1.611-0.64-2.841-1.599-3.663C88.35,69.704,87.167,69.287,85.756,69.287z"/>
	<path fill="#E2711D" d="M62.631,74.809c-0.732-0.339-1.759-0.515-3.089-0.521h-7.62v8.348h7.513c1.339,0,2.386-0.194,3.134-0.559
		c1.358-0.684,2.037-1.987,2.037-3.91C64.606,76.533,63.948,75.417,62.631,74.809z"/>
	<path fill="#E2711D" d="M71.432,21.425c-28.376,0-51.377,23.001-51.377,51.377s23.001,51.377,51.377,51.377
		s51.377-23.001,51.377-51.377S99.808,21.425,71.432,21.425z M69.76,83.602c-0.585,0.984-1.314,1.803-2.193,2.48
		c-0.986,0.762-2.154,1.279-3.494,1.567c-1.347,0.276-2.803,0.417-4.377,0.417H45.745v-31.32H60.71
		c3.771,0.056,6.449,1.167,8.015,3.343c0.95,1.323,1.425,2.919,1.425,4.772c0,1.913-0.481,3.456-1.435,4.619
		c-0.539,0.649-1.32,1.245-2.356,1.778c1.576,0.586,2.768,1.499,3.57,2.763c0.803,1.27,1.207,2.794,1.207,4.594
		C71.137,80.472,70.677,82.134,69.76,83.602z M77.854,59.958h16.056v3.211H77.854V59.958z M97.114,78.183H80.438
		c0.094,2.333,0.896,3.958,2.402,4.896c0.909,0.58,2.01,0.868,3.292,0.868c1.364,0,2.475-0.354,3.324-1.063
		c0.468-0.382,0.875-0.906,1.235-1.593H96.8c-0.159,1.367-0.902,2.77-2.22,4.192c-2.051,2.242-4.923,3.375-8.611,3.375
		c-3.048,0-5.731-0.947-8.064-2.851c-2.327-1.903-3.487-4.989-3.487-9.276c0-4.007,1.047-7.09,3.154-9.231
		c2.102-2.139,4.823-3.214,8.179-3.214c1.994,0,3.788,0.37,5.381,1.088c1.6,0.73,2.919,1.866,3.964,3.427
		c0.935,1.386,1.542,2.979,1.824,4.798C97.076,74.658,97.142,76.182,97.114,78.183z"/>
</g>
</svg>
