<?xml version="1.0" encoding="utf-8"?>
<!-- Generator: Adobe Illustrator 15.1.0, SVG Export Plug-In . SVG Version: 6.00 Build 0)  -->
<!DOCTYPE svg PUBLIC "-//W3C//DTD SVG 1.1//EN" "http://www.w3.org/Graphics/SVG/1.1/DTD/svg11.dtd">
<svg version="1.1" id="Layer_1" xmlns="http://www.w3.org/2000/svg" xmlns:xlink="http://www.w3.org/1999/xlink" x="0px" y="0px"
	 width="454.289px" height="64.32px" viewBox="0 0 454.289 64.32" enable-background="new 0 0 454.289 64.32" xml:space="preserve">
<text transform="matrix(1 0 0 1 36.4082 44.0254)" fill="#653614" font-family="'TwCenMT-Regular'" font-size="46.92">J</text>
<text transform="matrix(1 0 0 1 73.2402 44.0254)" fill="#653614" font-family="'TwCenMT-Regular'" font-size="46.92">U</text>
<text transform="matrix(1 0 0 1 120.3013 44.0254)" fill="#653614" font-family="'TwCenMT-Regular'" font-size="46.92">L</text>
<text transform="matrix(1 0 0 1 157.1333 44.0254)" fill="#653614" font-family="'TwCenMT-Regular'" font-size="46.92">I</text>
<text transform="matrix(1 0 0 1 186.1299 44.0254)" fill="#653614" font-family="'TwCenMT-Regular'" font-size="46.92">E</text>
<text transform="matrix(1 0 0 1 203.6309 44.0254)" fill="#F89838" font-family="'TwCenMT-Regular'" font-size="46.92">H</text>
<text transform="matrix(1 0 0 1 250.7383 44.0254)" fill="#F89838" font-family="'TwCenMT-Regular'" font-size="46.92">E</text>
<text transform="matrix(1 0 0 1 290.0576 44.0254)" fill="#F89838" font-family="'TwCenMT-Regular'" font-size="46.92">N</text>
<text transform="matrix(1 0 0 1 340.1211 44.0254)" fill="#F89838" font-family="'TwCenMT-Regular'" font-size="46.92">R</text>
<text transform="matrix(1 0 0 1 379.9561 44.0254)" fill="#F89838" font-family="'TwCenMT-Regular'" font-size="46.92">Y</text>
</svg>
