<?xml version="1.0" encoding="utf-8"?>
<!-- Generator: Adobe Illustrator 15.1.0, SVG Export Plug-In . SVG Version: 6.00 Build 0)  -->
<!DOCTYPE svg PUBLIC "-//W3C//DTD SVG 1.1//EN" "http://www.w3.org/Graphics/SVG/1.1/DTD/svg11.dtd">
<svg version="1.1" id="Layer_1" xmlns="http://www.w3.org/2000/svg" xmlns:xlink="http://www.w3.org/1999/xlink" x="0px" y="0px"
	 width="250px" height="60px" viewBox="0 0 250 60" enable-background="new 0 0 250 60" xml:space="preserve">
<g>
	<path fill="#E27326" d="M72.77,22.516c0.036,0.108,0.108,0.432,0.108,0.756v0.144c-0.036,0.216-0.216,0.612-0.972,0.936
		c0,0-0.324,0.216-0.576,0.216l-0.9-0.072c-0.684-0.252-0.684-0.18-1.512-0.432c-0.252-0.072-0.792-0.144-1.188-0.288
		c-1.836-0.612-1.584-0.648-2.375-0.972c-0.072-0.036-2.232-0.828-2.34-0.828c-0.396,0-0.612-0.216-1.332-0.396
		c-0.288-0.072-0.864-0.072-1.296-0.216l-1.152-0.144c-0.396-0.144-0.72-0.18-1.008-0.18c-0.324,0-0.576,0.072-0.792,0.072
		c-0.432-0.072-0.756-0.072-1.008-0.072h-1.439c-0.144,0-0.9,0.144-1.368,0.144c-0.612,0-1.26,0.036-1.979,0.036
		c-0.216,0-0.432,0.036-0.612,0.036c-0.144,0-0.252,0.072-0.576,0.072c-0.216,0-0.612,0.036-1.296,0.216
		c-0.324,0-0.288,0.108-0.612,0.108c-0.108,0-0.288,0.036-0.468,0.036c-1.836,0.108-2.556,0.468-4.788,0.864l-1.692,0.324
		c-0.108,0.108-0.54,0.252-0.684,0.252l-0.396,0.108c-0.468,0-0.576,0.324-1.188,0.432c-0.432,0.108-0.9,0.216-1.62,0.432
		c-0.612,0.18-0.54,0.18-1.296,0.432C36.342,24.568,35.227,25,35.046,25c-0.288,0-0.252,0.18-0.756,0.18
		c-0.252,0-0.792,0.216-1.08,0.216h-0.936c-0.612,0-1.008-0.216-1.296-0.432c-0.648-0.432-1.08-0.936-1.08-1.512
		c0-1.152,0.576-1.764,0.756-1.764l0.54-0.144c-0.108,0,0.792-0.072,0.792-0.108l0.612-0.036l0.72,0.18
		c0.612,0,0.936,0.36,1.152,0.36c0.036,0,0.252-0.036,0.432-0.036c0.144,0,0.972,0.072,1.152,0.108c0.216,0,0.684-0.072,1.08-0.072
		c0.216,0,0.432,0.072,0.684,0.072l0.432-0.036c0.072-0.108,0.54-0.108,0.864-0.108h0.612c0.72,0,1.224-0.18,1.908-0.252
		c0.072,0,0.072-0.036,0.144-0.036c0.468-0.072,0.612-0.108,0.9-0.108c2.556-0.36,1.656-0.252,4.967-0.756
		c0.972-0.036,1.404-0.072,2.88-0.324c0.072,0,0.612-0.072,0.72-0.072c0.144,0,0.396-0.036,0.72-0.036c0.468,0,0.936-0.18,1.44-0.18
		c0.072-0.036,1.08-0.036,1.152-0.036h0.576c0,0,0.18-0.036,0.504-0.036c0.432,0,0.36,0.036,1.62,0.072
		c0.036,0,1.116-0.036,1.26-0.036c0.036,0,1.332,0.036,1.368,0.036c1.404,0.252,1.26,0.108,3.492,0.36
		c1.98,0.252,3.636,0.36,4.211,0.54c0.36,0.072,0.684,0.108,0.9,0.108l1.224,0.252c1.224,0.072,1.043,0.108,1.872,0.144
		C71.906,21.508,72.302,21.76,72.77,22.516z"/>
	<path fill="#E27326" d="M114.061,24.928h-0.252c-0.036,0.036-0.288,0.072-1.332,0.288l-1.08,0.288c-0.216,0-2.016,0.36-2.268,0.504
		c-0.828,0.072-1.439,0.216-3.095,0.756l-2.484,0.576c-0.036,0-1.98,0.504-2.016,0.504c-1.152,0.288-2.376,0.324-3.492,0.54
		l-3.419,0.612c-0.108,0-0.252,0.036-0.432,0.036c-0.612,0-1.62-0.144-2.52-0.792c-0.036-0.108-0.108-0.18-0.18-0.216
		c-0.18-0.18-0.216-0.216-0.216-0.288l-0.432-0.396c-0.072,0.216-0.324,0.72-0.504,1.656c-0.072,0.252-0.648,1.224-0.648,1.368
		c-0.144,0.432-1.296,2.807-1.296,2.916l-0.072,0.144c-0.468,0.793-1.404,2.305-1.872,2.521c-0.036,0.071-1.08,1.259-1.512,1.476
		c-0.432,0.217-1.044,0.432-1.583,0.432c-0.18,0-0.612-0.145-0.792-0.18c-0.972-0.18-1.98-1.367-2.196-1.764
		c-0.72-1.619-0.792-1.871-1.008-2.592c-0.036-0.107-0.36-2.123-0.324-2.123c-0.072,0-0.216-0.973-0.54-1.944
		c-0.288,0.216-0.252,0.756-0.36,1.188l-0.288,1.08c-0.144,0.54-0.288,1.008-0.576,1.62c0,0.216,0,0.432-0.18,0.648
		c-0.18,0.395-0.252,1.115-0.648,1.512c-0.108,0.396-0.54,1.512-1.836,1.584c-1.152-0.324-1.26-0.613-1.764-1.08
		c-0.828-0.793-1.62-1.656-2.016-2.844c-0.144-0.433-0.828-1.368-0.972-2.196c-0.144-0.648-0.36-1.368-0.36-2.664v-1.044
		c0-0.252-0.036-0.504-0.036-0.936c0-0.468,0.072-0.972,0.18-1.512c0-0.18,0.252-0.54,0.252-0.576c0-0.108,0.288-0.756,0.288-0.828
		c0-0.396,0.684-1.224,0.972-1.476c0-0.036,1.044-0.324,1.044-0.324c0.144,0.036,0.576,0.072,0.828,0.252
		c0.36,0.288,0.828,0.648,0.828,1.188c0.072,0.18,0.144,0.396,0.144,0.792v0.9c0,0.72-0.54,1.979-0.576,2.196
		c-0.108,0.468-0.18,0.9-0.18,1.332c0,0.972,0.252,2.016,0.468,2.844l0.108,0.432c0.036,0.216,0.684,2.231,1.62,2.231
		c0.072-0.035,1.043-1.656,1.512-3.312c-0.036,0.072,0.576-2.375,0.756-2.375c0.144-0.72,0.216-1.152,0.216-1.404
		c0-0.324-0.18-0.504-0.18-0.792c0-0.108-0.072-0.432-0.072-0.468c0-0.288-0.036-0.216-0.324-1.547c0-0.036,0.036-0.108,0.036-0.36
		c0.396-0.54,1.188-1.404,2.196-1.404c0.108,0,0.576-0.144,0.684-0.144c0.252,0,0.612,0.072,1.008,0.072
		c0.216,0,0.324,0.108,0.324,0.396c0.108,0,0.468,0.684,0.468,2.052c0,0.072,0.072,0.684,0.072,1.044
		c0,0.36-0.072,0.936-0.072,1.368c0,0.288-0.108,0.648-0.108,0.864c0,0.072,0.036,0.108,0.036,0.144
		c0,0.108-0.072,0.792-0.072,1.332c0,0.432,0.216,1.043,0.216,1.476c0,0.216,0.108,0.972,0.108,1.332s0,0.792,0.18,1.151
		c0.36,1.584,1.404,2.448,2.232,2.448c0.288,0,0.576-0.504,1.188-1.296c0.468-0.576,0.936-1.26,1.26-1.8l0.144-0.181
		c0.396-0.575,0.792-1.367,1.152-2.159c0.252-0.576,0.432-1.224,0.648-1.8c0.144-0.504,0.468-1.332,0.54-1.728
		c0-0.468-0.792-1.872-1.188-3.636v-0.972c0-0.216,0-0.432,0.18-0.684c0.072-0.072,0.216-0.324,0.252-0.432
		c0.072-0.108,0.972-1.116,1.944-1.116c0.216,0,0.36-0.036,1.476-0.036c0.108,0,0.216,0.036,0.36,0.108
		c0.18,0.108,0.324,0.288,0.36,0.324c0.396,0.216,0.612,0.9,0.612,0.936c0,0.072,0.036,0.18,0.036,0.324
		c0,0.072,0,0.144-0.036,0.216c0,0.432-0.144,0.72-0.252,1.476c0,0.864-0.144,0.72-0.144,1.476c0,1.44,0.18,2.412,0.612,2.412
		c0.396,0.216,0.72,0.36,1.404,0.36h0.468c1.188,0,3.095-0.036,3.887-0.216c2.232-0.54,3.636-0.648,5.903-1.368l3.708-0.828
		l3.6-1.044l1.296-0.288c0.108,0,0.612-0.144,1.188-0.288c0.036,0,0.18-0.072,0.18-0.108c0.144,0,0.288-0.252,0.288-0.252
		s0.216-0.036,0.252-0.144l0.18-0.144c0.072-0.036,0-0.144,0.108-0.216c0.036-0.072,0.216-0.072,0.216-0.288
		c0.54-0.36,0.576-0.36,0.576-0.36c0.18,0,0.396,0,0.468,0.216c0.144,0.18,0.648,0.108,0.828,0.612
		c0.036,0.108,0.036,0.216,0.036,0.468c0.072,0.18,0.108,0.324,0.108,0.432c0,0.792-0.576,0.936-1.368,0.936
		c-0.216,0-0.396-0.072-0.648-0.252c-0.072-0.036-0.144-0.036-0.18-0.036c-0.072,0-0.144,0.072-0.288,0.072
		c-0.216,0.108-0.936,0.216-1.044,0.468C114.564,24.711,114.132,24.928,114.061,24.928z"/>
	<path fill="#E27326" d="M131.848,25.576l-1.584,0.756l-3.743,1.368c-0.864,0.288-2.7,1.116-3.78,1.224l-1.656,0.18
		c-0.36,0-1.224-0.144-1.332-0.18c-0.036,0-0.144-0.036-0.18-0.036c-0.468-0.036-1.26-0.684-1.8-1.152l-0.324,1.332
		c0,0.036-0.072,0.18-0.18,0.396c0,0.036-0.072,0.108-0.072,0.18l-0.72,2.124c-0.108,0.181-0.18,0.288-0.252,0.504
		c-0.216,0.433-0.432,0.828-0.612,1.116l-0.612,0.972c-0.18,0.252-0.468,0.756-0.684,0.972c-0.108,0.217-0.72,0.864-0.936,1.152
		c0,0.107-1.044,1.008-1.044,1.008s-0.468,0.467-1.152,0.791c-0.252,0.145-0.684,0.252-0.828,0.252c-0.108,0-0.396,0.109-0.54,0.109
		c-0.684,0-1.08-0.182-1.152-0.217c-0.432-0.287-0.828-0.684-1.08-1.619c0-0.037-0.144-0.217-0.18-0.756
		c-0.036-0.181-0.108-0.433-0.108-0.793c0-0.252,0-0.539,0.036-0.828l0.108-0.504c0-0.071,0.072-1.008,0.792-2.482l0.648-1.369
		c0.252-0.468,0.324-0.756,0.36-0.792l1.764-3.06c0.216-0.252,0.324-0.576,0.612-0.828c0.144-0.252,1.08-1.476,1.152-1.584
		c0.252-0.396,0.504-0.792,0.936-1.08l0.54-0.36c-0.036-0.036,0.612-0.252,0.684-0.252l0.432-0.072c0.324,0,0.684,0.108,0.864,0.216
		l0.18-0.252c0.18-0.144,0.54-0.324,1.188-0.324c1.295,0,2.016,1.62,2.016,2.16c0,0.072,0.036,0.36,0.072,0.612l0.108,0.972
		c0.036,0.324,0,0.468,0.108,0.936c0.108,0.54,1.043,1.188,1.656,1.188h0.648c0.648,0,1.332,0,1.728-0.144
		c1.368-0.36,1.764-0.54,1.836-0.54c0.72-0.144,2.196-0.684,3.852-1.44l3.167-1.44l0.433-0.144l1.116-0.72
		c0.035,0,0.144,0,0.144-0.036c0.144,0,0.288-0.252,0.288-0.252s0.216-0.036,0.252-0.144l0.18-0.144
		c0.072-0.036,0-0.144,0.107-0.216c0.037-0.072,0.217-0.072,0.217-0.288c0.539-0.36,0.576-0.36,0.576-0.36
		c0.18,0,0.395,0,0.467,0.216c0.145,0.18,0.648,0.108,0.828,0.612c0.037,0.108,0.037,0.216,0.037,0.468
		c0.072,0.18,0.107,0.324,0.107,0.432c0,0.792-0.576,0.936-1.368,0.936c-0.216,0-0.396-0.072-0.647-0.252
		c-0.072-0.036-0.145-0.036-0.18-0.036c-0.072,0-0.145,0.072-0.289,0.072c-0.215,0.108-0.539,0.144-0.756,0.36
		c-0.144,0-0.432,0.18-0.396,0.18c0,0.036-0.18,0.072-0.684,0.36C132.82,25.215,132.388,25.324,131.848,25.576z M110.358,35.438
		c0.108,0.071,0.324,0.18,0.468,0.18l0.684-0.071c0.144,0,0.396-0.108,0.72-0.36c0.756-0.54,0.972-0.828,1.44-1.476
		c0.324-0.469,0.54-0.685,0.756-1.116l0.9-1.548c0.216-0.396,0.504-1.188,0.684-1.656l0.468-1.368
		c0.216-0.612,0.252-1.08,0.432-1.728c0-0.108-0.036-0.288-0.072-0.396l-0.504-0.468c-0.396-0.288-0.396-0.324-0.432-0.324
		c-0.108,0-0.18,0.216-0.54,0.504l-0.18,0.144c-0.576,0.432-1.152,0.864-1.547,1.332c-0.036,0.108-0.108,0.108-0.18,0.18l-0.18,0.18
		c-0.036,0.072-0.36,0.432-0.36,0.432c-0.936,1.188-1.224,1.8-1.548,2.556c-0.396,0.684-0.36,0.864-0.648,1.62
		c-0.252,0.54-0.36,1.008-0.468,1.548c-0.072,0.288-0.036,0.181-0.108,0.72c0,0.107,0,0.252-0.036,0.432
		C110.106,34.862,110.322,35.366,110.358,35.438z"/>
	<path fill="#E27326" d="M160.215,23.128c0.035,0,0.145,0,0.145-0.036c0.143,0,0.287-0.252,0.287-0.252s0.18-0.036,0.252-0.144
		l0.18-0.144c0.037,0,0.037-0.072,0.037-0.108s0-0.072,0.035-0.108c0.072-0.072,0.252-0.072,0.252-0.288
		c0.539-0.36,0.576-0.36,0.576-0.36c0.145,0,0.396,0,0.467,0.216c0.145,0.18,0.648,0.108,0.828,0.612
		c0.037,0.108,0.037,0.216,0.037,0.468c0.072,0.18,0.107,0.324,0.107,0.432c0,0.792-0.576,1.26-1.367,1.26
		c-0.217,0-0.396-0.072-0.648-0.252c-0.252-0.108-0.252-0.288-0.469-0.288c-0.215,0.108-0.467,0.144-0.756,0.216l-0.322,0.108
		c-0.217,0.108-0.576,0.252-1.045,0.504l-0.721,0.36c0,0-0.252,0.18-0.504,0.288l-1.33,0.756c-0.541,0.324-1.008,0.72-3.025,1.62
		c0,0-4.066,2.664-4.066,2.627c0,0-0.611,0.468-1.404,1.008c-1.188,0.791-2.734,1.764-3.023,1.871
		c-0.035,0.072-0.324,0.18-0.756,0.469c-0.504,0.252-1.08,0.684-1.871,1.151L142,35.187c-0.467,0.36-1.654,1.331-2.268,1.728
		c-0.143,0.072-0.684,0.611-1.115,0.973l-0.648,0.611c-0.432,0.324-0.756,0.684-0.828,0.936c0,0-0.791,0.611-0.863,0.684
		l-1.115,0.252c-0.18,0-0.504,0-0.541-0.143c-0.684-0.109-0.936-0.469-1.151-1.08c0-0.037-0.036-0.324-0.036-0.361
		c-0.035-0.107-0.035-0.215-0.072-1.008v-0.684c0-0.287,0.108-0.611,0.181-0.899l0.216-1.116c0.036-0.216,0.107-0.432,0.107-0.576
		c0-0.647,0.721-2.34,1.08-3.239c0,0,0.324-0.504,0.541-0.9c0.432-0.756,0.827-1.224,1.367-1.872l0.359-0.54
		c0.145-0.18,0.504-0.576,0.504-0.648l0.217-0.252c-0.145-0.108-0.432-0.252-0.432-0.252c-0.252,0-0.684-0.324-0.9-0.432
		c-0.432-0.216-0.721-0.432-0.721-0.432l-0.395-0.216c-0.289-0.108-0.252-0.144-0.504-0.36l-0.181-0.144
		c-0.324-0.216-0.54-0.504-0.828-0.684c-0.216-0.18-0.323-0.252-0.468-0.468l-0.54-0.576c-0.18-0.18-0.288-0.288-0.396-0.54
		c-0.18-0.288-0.252-0.576-0.252-0.864c0-0.072,0-0.216,0.035-0.324c0.108-0.072,0.108-0.144,0.252-0.324
		c0.108,0,0.145-0.108,0.252-0.144l0.324-0.216c0.145,0,0.324-0.108,0.36-0.108c0.071,0,0.36-0.036,0.432-0.036h0.612
		c0.18,0,0.576,0.072,0.72,0.072c0.216,0.072,0.323,0.036,0.575,0.108c0.072,0.036,0.253,0.144,0.396,0.18
		c0.145,0.036,0.684,0.36,0.756,0.504l0.145,0.288l0.18,0.252c0,0,0.035,0.072,0.072,0.18l0.035,0.144c0,0,0.037,0.18,0.037,0.36
		v0.252c0,0.036-0.037,0.144-0.037,0.216c0,0-0.107,0.144-0.107,0.216c-0.252,0.18-0.217,0.252-0.217,0.252l0.037,0.108
		c0.107,0.036,0.287,0.216,0.504,0.216c0.035,0.072,0.145,0.072,0.252,0.072c0,0.036,0.324,0.216,0.432,0.216l0.504,0.036
		c0.035,0.036,0.107,0.072,0.252,0.072s0.396,0.072,0.396,0.072c0.143,0,0.287,0.108,0.504,0.108c0.072,0,0.359,0.18,0.396,0.18
		c0.07,0,0.395,0.144,0.504,0.216l0.359,0.18c0.107,0.144,0.107,0.216,0.107,0.324c0,0.072,0.037,0.252,0.037,0.288
		c0,0.144-0.037,0.252-0.037,0.396l-0.035,0.288c0,0.144-0.109,0.684-0.18,0.756l-0.756,0.864c-0.037,0.072-0.506,0.54-0.541,0.612
		l-1.477,2.124c0,0-0.252,0.432-0.395,0.647c-0.072,0.145-0.18,0.396-0.361,0.648c-0.143,0.216-0.684,1.619-0.791,2.016
		c0,0.468-0.324,0.828-0.324,1.439c0.037,0.108,0.072,0.252,0.072,0.396c0,0.035,0.035,0.107,0.035,0.18
		c0.072,0.252,0.072,0.359,0.182,0.504c0.035,0.072,0.252,0.18,0.432,0.18c0.107,0,0.215-0.035,0.252-0.107
		c0,0,0.324-0.252,0.432-0.252c0.215-0.145,0.359-0.252,0.359-0.252c0.252-0.217,0.359-0.217,0.684-0.469l1.08-0.719l0.721-0.396
		c0.756-0.432,1.512-0.792,2.16-1.367c2.195-1.297,2.195-1.332,2.23-1.332c0.217-0.108,0.504-0.252,1.188-0.828l3.312-2.304
		l3.887-2.412c0.252-0.18,0.721-0.504,0.756-0.504c0.109-0.036,0.434-0.216,0.434-0.36c0.07,0,0.252-0.072,0.791-0.36l1.547-0.864
		l2.197-1.044L160.215,23.128z"/>
	<path fill="#E27326" d="M191.029,23.956l0.217-0.072l0.252-0.252l0.826-0.504c0.037,0,0.145,0,0.145-0.036
		c0.107,0,0.289-0.252,0.289-0.252s0.18-0.036,0.252-0.144l0.18-0.144c0.035-0.036,0-0.144,0.072-0.216
		c0.07-0.072,0.252-0.072,0.252-0.288c0.539-0.36,0.574-0.36,0.574-0.36c0.145,0,0.396,0,0.434,0.216
		c0.18,0.18,0.646,0.108,0.863,0.612c0.035,0.108,0.035,0.216,0.035,0.468c0.037,0.18,0.072,0.324,0.072,0.432
		c0,0.792-0.539,0.936-1.332,0.936c-0.215,0-0.395-0.072-0.646-0.252c-0.072-0.036-0.145-0.036-0.182-0.036
		c-0.107,0-0.143,0.072-0.287,0.072c-0.217,0.108-0.791,0.18-0.863,0.432c-0.145,0-0.324,0.108-0.289,0.108
		c0,0.036-0.143,0.108-0.646,0.396l-0.793,0.324l-0.504,0.288c-0.684,0.252-1.836,1.008-2.664,1.476l-1.836,0.9
		c0,0-4.139,2.592-4.174,2.628c-0.072,0-1.549,1.08-2.809,1.979c-1.08,0.937-2.52,1.692-2.844,2.125
		c-1.225,0.756-1.152,0.863-2.447,1.619c-0.684,0.504-2.195,1.152-3.203,1.152c-0.434,0-0.793-0.037-1.117-0.037
		c-0.143,0-0.467-0.035-0.756-0.215c-1.223-0.685-1.943-1.584-2.664-2.52l-0.18-0.252c0,0.107-0.467-1.008-1.008-1.621
		c-0.035-0.035-0.035-0.287-0.18-0.359c-0.035,0.036-0.791-1.044-0.756-1.044c-0.145,0-0.287-0.648-0.539-0.648
		c-0.217,0-0.324,0.648-0.324,0.684s-0.037,0.107-0.037,0.18l-0.107,0.9c0,0.504-0.072,0.9-0.072,1.188
		c0,0.288-0.072,0.576-0.072,0.936v0.252c0,0.289-0.072,0.9-0.072,1.225c0,0.504-0.287,0.936-0.504,1.223
		c-0.107,0-0.791,0.613-1.26,0.613l-0.826,0.107c-0.434-0.252-0.756,0.145-1.297-0.611c-0.035-0.037-0.072-0.145-0.072-0.324
		c0-0.828,0-2.628,0.037-2.736l0.143-1.008c0-0.287,0.037-0.359,0.037-0.756l0.18-0.684c0-0.145,0.18-0.9,0.18-0.972
		c0-0.216,0.107-0.576,0.107-0.648c0-0.648,0.504-1.764,0.504-2.484c0-0.684,0.504-2.231,0.648-3.096
		c0.145-0.684,0.18-1.439,0.359-2.16c0.252-1.008,0.217-1.224,0.469-2.627c0.072-0.396,0.217-0.9,0.324-1.656l0.252-1.152
		c0.252-1.296,0.396-1.908,0.648-2.664c0.395-1.295,0.719-2.339,0.828-2.591c1.115-2.016,0.791-2.016,2.52-4.211
		c0.504-0.648,2.195-1.584,3.166-1.584c0.756,0,1.98,0.036,1.98,2.844c0,1.008-0.252,1.835-0.539,2.771
		c0,0.144-0.072,0.396-0.145,0.54c-0.18,0.648-0.432,1.44-0.611,1.944c-0.541,1.188-0.721,1.691-1.225,2.52l-0.359,0.648
		l-0.361,0.504c0,0.036-0.287,0.468-0.467,0.648l-0.793,1.152c-1.223,1.116-1.547,1.692-2.195,2.268
		c-0.035,0.036-0.072,0.072-0.107,0.648c0,0.576-0.037,0.756-0.145,0.864c-0.072,1.548-0.107,1.656-0.107,1.728
		c0,0.144,0.035,0.252,0.107,0.36l1.152-1.296c0.396-0.396,1.115-1.368,2.268-2.16c0.252-0.18,1.152-0.756,1.512-0.936
		c1.439-0.828,2.016-0.864,3.24-0.864c0.432,0,1.043,0.324,1.188,0.936c0.035,0.072,0.035,0.144,0.035,0.252
		c0,0.972-0.576,2.124-1.404,2.988c-0.574,0.612-3.311,2.447-4.211,2.735c-0.611,0.324-1.367,0.9-2.34,1.188
		c0.541,0.72,0.648,0.864,1.297,2.016l0.971,1.728c0.217,0.504,0.289,0.396,0.504,0.792c0.072,0.288,1.117,1.296,1.297,1.296
		c0.145,0,0.324,0.396,0.504,0.396c0.252,0.144,0.936,0.216,0.863,0.216c1.225,0,2.52-0.468,3.527-0.864
		c0.289-0.107,0.973-0.504,1.008-0.504c0.396,0,0.793-0.324,1.117-0.54c0.898-0.612,1.188-1.008,2.482-1.835l5.725-3.708
		l1.439-0.792c0.756-0.576,1.619-0.9,1.584-0.9c0-0.036,0.252-0.18,1.727-0.936l0.973-0.504L191.029,23.956z M164.789,17.8
		l-0.396,1.728c0.287-0.144,0.611-0.468,0.756-0.756c0.539-0.324,1.152-1.836,1.729-2.736c1.08-1.764,1.799-4.715,1.979-6.803
		c-0.107,0-0.143-0.396-0.287-0.396c-0.18,0-0.324,0.036-0.432,0.036c-0.504,0-1.26,1.872-1.477,2.16
		C165.977,12.293,165.473,14.597,164.789,17.8z M169.863,22.912c0-0.144-0.035-0.216-0.215-0.216c-0.541,0-0.936,0.288-1.297,0.612
		l-1.008,0.72c-0.539,0.576-0.467,0.54-0.828,0.9c-0.395,0.324-0.863,0.936-0.971,1.296h0.287c0.217,0,0.793-0.504,0.936-0.468
		c0.037-0.108,0.396-0.288,0.396-0.288c0-0.072,0.721-0.432,1.477-0.972C168.82,24.532,169.863,23.416,169.863,22.912z"/>
	<path fill="#E27326" d="M200.213,18.952c0.107,0,0.504-0.18,0.971-0.18h0.865c0.395,0,0.432-0.036,1.078-0.036h0.434
		c0.287,0,0.467,0.036,0.756,0.036h1.439c0,0,0.432,0.036,0.504,0.036c0.215,0,0.432,0.108,0.576,0.108l0.611,0.288l0.611,0.144
		c0.434,0.216,1.08,0.54,1.477,0.864c1.512,1.152,2.303,2.664,2.303,4.463V25c-0.107,1.44-0.215,2.34-0.791,3.492
		c-0.035,0.072-0.18,0.756-0.18,0.756c-0.072,0.144-0.252,0.864-0.324,0.936l-0.145,0.216c-0.072,0.072-0.539,1.152-0.646,1.296
		l-0.361,0.467c0,0-0.035,0.217-0.107,0.324l-0.107,0.576l-0.432,0.611l-0.109,0.396l-0.396,0.504l-0.07,0.288l-0.072,0.108
		c-0.037,0.035-0.217,0.072-0.324,0.072c-0.072,0-0.145,0-0.18-0.037c-0.145-0.107-0.18-0.252-0.18-0.359
		c0-0.252,0.107-0.432,0.18-0.576l0.539-0.72c0.072-0.072,0.18-0.647,0.252-0.685l0.324-0.467c0.145-0.469,0.289-1.296,0.469-1.764
		l0.432-0.756c0.072-0.108,0.215-0.576,0.287-0.648c0.037-0.324,0.072-0.504,0.145-0.792l0.18-0.828l0.18-1.188
		c0.037-0.072,0.037-0.216,0.037-0.36V25.54c0-0.216,0-0.396-0.072-0.54c0-0.468-0.217-0.756-0.648-1.188
		c-0.971-0.792-1.115-0.9-2.268-1.152c-0.252-0.036-0.756-0.288-1.043-0.324l-0.648-0.072c0,0-0.396-0.144-0.504-0.144
		c-0.145,0-0.396-0.108-0.541-0.108c-0.107,0-0.467,0.036-0.719,0.036c-0.107,0-0.252,0-0.289-0.036
		c-0.072-0.072-0.143-0.108-0.252-0.108c-0.143,0-0.287,0.036-0.539,0.072c-0.072,0-0.145,0-0.289,0.036l-0.611,0.108h-0.215
		c-0.037-0.036-0.109-0.036-0.182-0.036c-0.215,0-0.322,0.072-0.359,0.072h-0.287c-0.037-0.036-0.109-0.036-0.18-0.036l-0.469,0.072
		c-0.072,0-0.432,0.144-0.469,0.144c-0.143,0-0.287,0.144-0.539,0.144c-0.18,0.036-0.504,0.18-0.793,0.288
		c-0.07,0.036-0.107,0.036-0.143,0.036c-0.109,0-0.217-0.036-0.324-0.036c-0.396,0.216-0.756,0.396-1.008,0.396
		c-0.107,0-0.289,0.072-0.396,0.072c-0.145,0-0.215-0.036-0.359-0.18c-0.072-0.072-0.541-0.684-0.541-0.72v-0.54
		c0-0.18,0-0.432,0.289-0.828c0.504-0.756,1.404-1.188,2.16-1.44C198.484,19.42,200.176,18.952,200.213,18.952z M197.332,47.281
		c0,0.324,0.145,0.646,0.145,0.971c0,0.182-0.035,0.324-0.107,0.469c-0.396-0.324-0.648-1.08-0.648-1.729
		c0-0.359,0.035-0.684,0.217-0.898l0.07-0.252c0.252-0.182,0.576-0.252,0.721-0.469l0.107-0.035l0.145,0.07
		c0.072,0.072,0.072,0.252,0.072,0.361c0,0.252-0.072,0.539-0.18,0.684c-0.145,0.215-0.252,0.18-0.396,0.324
		C197.369,46.957,197.332,47.102,197.332,47.281z M201.148,43.25c0.396,0,0.396,0.467,0.539,0.611
		c-0.252,1.008-0.756,0.973-0.756,0.973c-0.107,0.107-0.18,0.18-0.215,0.18c-0.072,0-0.109-0.18-0.361-0.252l-0.252-0.18
		l0.217-0.469l0.035-0.324l0.182-0.18l0.143-0.217C200.896,43.285,201.041,43.25,201.148,43.25z M203.02,40.945
		c0.217,0,0.432,0.18,0.648,0.324c0,0.035-0.145,1.008-0.863,1.008c-0.217,0-0.252-0.432-0.252-0.756c0-0.18,0-0.324,0.035-0.396
		C202.732,41.018,202.912,40.945,203.02,40.945z M207.555,36.266c0,0.037,0,0.072-0.035,0.108l-0.252,0.108
		c-0.396,1.043-1.008,1.908-1.908,2.52c-0.145,0.107-0.18,0.18-0.359,0.18c-0.107,0-0.217,0-0.359-0.107
		c0.684-0.9,0.898-1.836,1.512-2.592l0.539-0.721c0.107-0.071,0.18-0.107,0.287-0.107c0.145,0,0.324,0.072,0.469,0.18
		C207.482,35.906,207.555,36.122,207.555,36.266z"/>
</g>
</svg>
